<svg width="231" height="26" viewBox="0 0 231 26" fill="none" xmlns="http://www.w3.org/2000/svg">
<path d="M3.99999 6C1.79385 6 1.4173e-07 7.79386 0 9.99999C-9.44866e-08 11.6041 0.971452 13.3142 1.92203 14.645C2.8726 15.9758 3.82376 16.9269 3.82376 16.9269C3.87064 16.9737 3.93419 17 4.00046 17C4.06672 17 4.13028 16.9737 4.17716 16.9269C4.17716 16.9269 5.12831 15.9758 6.07888 14.645C7.02946 13.3142 7.99999 11.6041 7.99999 9.99999C7.99999 7.79386 6.20614 6 3.99999 6ZM3.99999 6.50011C5.93592 6.50011 7.49988 8.06407 7.49988 9.99999C7.49988 11.3958 6.59636 13.0602 5.67197 14.3543C4.83587 15.5248 4.15202 16.2061 3.99999 16.3612C3.84769 16.2058 3.16485 15.5246 2.32895 14.3543C1.40455 13.0602 0.500115 11.3958 0.500115 9.99999C0.500115 8.06407 2.06407 6.50011 3.99999 6.50011Z" fill="#A68E52"/>
<path d="M4 8.25C3.03648 8.25 2.25052 9.03688 2.25052 10.0004C2.25052 10.9639 3.03648 11.7508 4 11.7508C4.96352 11.7508 5.7504 10.9639 5.7504 10.0004C5.7504 9.03688 4.96352 8.25 4 8.25ZM4 8.75011C4.6933 8.75011 5.25028 9.3071 5.25028 10.0004C5.25028 10.6937 4.6933 11.2507 4 11.2507C3.30669 11.2507 2.75063 10.6937 2.75063 10.0004C2.75063 9.3071 3.30669 8.75011 4 8.75011Z" fill="#A68E52"/>
</svg>
