<svg width="265" height="36" viewBox="0 0 265 36" fill="none" xmlns="http://www.w3.org/2000/svg">
<rect y="35" width="265" height="1" fill="#DDDDDD"/>
<path d="M11.106 16V6.032H12.422V14.474H12.45L17.336 6.032H19.002V16H17.686V7.53H17.658L12.758 16H11.106ZM28.8255 16H27.6355V10.302H27.5935L25.4515 16H24.3595L22.2175 10.302H22.1755V16H20.9855V8.776H22.6935L24.8915 14.628H24.9195L27.1175 8.776H28.8255V16ZM36.2955 16H35.1055V13.046H33.5235L31.2415 16H29.6595L32.1515 13.004C31.6195 12.92 31.1855 12.696 30.8495 12.332C30.5228 11.9587 30.3595 11.4827 30.3595 10.904C30.3595 10.232 30.5602 9.70933 30.9615 9.336C31.3628 8.96267 31.9182 8.776 32.6275 8.776H36.2955V16ZM35.1055 9.826H33.0055C32.0535 9.826 31.5775 10.1853 31.5775 10.904C31.5775 11.632 32.0535 11.996 33.0055 11.996H35.1055V9.826ZM39.923 14.446V16H38.369V14.446H39.923ZM39.923 8.776V10.33H38.369V8.776H39.923ZM45.6955 7.586L44.1695 8.118L45.0935 9.378L44.5195 9.798L43.5535 8.482L42.6295 9.798L42.0135 9.378L42.9235 8.118L41.4395 7.586L41.6775 6.9L43.1755 7.46V5.878H43.9315V7.46L45.4155 6.9L45.6955 7.586Z" fill="#757575"/>
</svg>
