<svg width="265" height="39" viewBox="0 0 265 39" fill="none" xmlns="http://www.w3.org/2000/svg">
<rect y="38" width="265" height="1" fill="#DDDDDD"/>
<path d="M18.022 6.032V7.18H14.676V16H13.36V7.18H10.014V6.032H18.022ZM23.5505 13.718C23.1865 15.398 22.1365 16.238 20.4005 16.238C19.3365 16.238 18.5011 15.9067 17.8945 15.244C17.2971 14.5813 16.9985 13.662 16.9985 12.486C16.9985 11.3193 17.3065 10.3767 17.9225 9.658C18.5478 8.93 19.3598 8.566 20.3585 8.566C21.4691 8.566 22.2905 8.944 22.8225 9.7C23.3638 10.4467 23.6345 11.394 23.6345 12.542V12.71H18.2025L18.1885 12.794C18.1885 13.5593 18.3891 14.1613 18.7905 14.6C19.1918 15.0387 19.7425 15.258 20.4425 15.258C20.9651 15.258 21.3758 15.1367 21.6745 14.894C21.9825 14.6513 22.2205 14.2593 22.3885 13.718H23.5505ZM22.4025 11.744C22.3465 11.0533 22.1365 10.5167 21.7725 10.134C21.4085 9.742 20.9278 9.546 20.3305 9.546C19.7518 9.546 19.2711 9.742 18.8885 10.134C18.5058 10.526 18.2771 11.0627 18.2025 11.744H22.4025ZM30.6699 8.776V16H29.4799V9.826H26.9039L26.8059 13.018C26.7779 14.1193 26.5772 14.9173 26.2039 15.412C25.8306 15.9067 25.3639 16.154 24.8039 16.154C24.4586 16.154 24.1739 16.1027 23.9499 16V15.034C24.0712 15.0993 24.2812 15.132 24.5799 15.132C24.8599 15.132 25.0979 14.9827 25.2939 14.684C25.4992 14.376 25.6112 13.8627 25.6299 13.144L25.7559 8.776H30.6699ZM38.6032 13.718C38.2392 15.398 37.1892 16.238 35.4532 16.238C34.3892 16.238 33.5539 15.9067 32.9472 15.244C32.3499 14.5813 32.0512 13.662 32.0512 12.486C32.0512 11.3193 32.3592 10.3767 32.9752 9.658C33.6005 8.93 34.4125 8.566 35.4112 8.566C36.5219 8.566 37.3432 8.944 37.8752 9.7C38.4165 10.4467 38.6872 11.394 38.6872 12.542V12.71H33.2552L33.2412 12.794C33.2412 13.5593 33.4419 14.1613 33.8432 14.6C34.2445 15.0387 34.7952 15.258 35.4952 15.258C36.0179 15.258 36.4285 15.1367 36.7272 14.894C37.0352 14.6513 37.2732 14.2593 37.4412 13.718H38.6032ZM37.4552 11.744C37.3992 11.0533 37.1892 10.5167 36.8252 10.134C36.4612 9.742 35.9805 9.546 35.3832 9.546C34.8045 9.546 34.3239 9.742 33.9412 10.134C33.5585 10.526 33.3299 11.0627 33.2552 11.744H37.4552ZM49.6927 12.276C49.6927 12.9947 49.6041 13.634 49.4267 14.194C49.2494 14.754 48.9321 15.2253 48.4747 15.608C48.0267 15.9813 47.4621 16.168 46.7807 16.168C46.5194 16.168 46.2394 16.0933 45.9407 15.944C45.6421 15.7947 45.4181 15.6313 45.2687 15.454H45.2407V18.786H44.0647V15.454H44.0367C43.8874 15.6313 43.6634 15.7947 43.3647 15.944C43.0661 16.0933 42.7861 16.168 42.5247 16.168C41.8434 16.168 41.2741 15.9813 40.8167 15.608C40.3687 15.2253 40.0561 14.754 39.8787 14.194C39.7014 13.634 39.6127 12.9947 39.6127 12.276C39.6127 11.1373 39.8647 10.2413 40.3687 9.588C40.8727 8.92533 41.5587 8.594 42.4267 8.594C42.7254 8.594 43.0287 8.678 43.3367 8.846C43.6541 9.00467 43.8827 9.182 44.0227 9.378H44.0647V6.032H45.2407V9.378H45.2827C45.4227 9.182 45.6467 9.00467 45.9547 8.846C46.2721 8.678 46.5801 8.594 46.8787 8.594C47.7467 8.594 48.4327 8.92533 48.9367 9.588C49.4407 10.2413 49.6927 11.1373 49.6927 12.276ZM48.4607 12.304C48.4607 11.4733 48.3161 10.8153 48.0267 10.33C47.7374 9.83533 47.2987 9.588 46.7107 9.588C46.4027 9.588 46.1041 9.66733 45.8147 9.826C45.5347 9.98467 45.3434 10.2413 45.2407 10.596V14.236C45.2874 14.4973 45.4414 14.7213 45.7027 14.908C45.9734 15.0853 46.2861 15.174 46.6407 15.174C46.9861 15.174 47.2801 15.09 47.5227 14.922C47.7747 14.754 47.9661 14.5253 48.0967 14.236C48.2274 13.9373 48.3207 13.634 48.3767 13.326C48.4327 13.0087 48.4607 12.668 48.4607 12.304ZM44.0647 14.236V10.596C43.9621 10.2413 43.7661 9.98467 43.4767 9.826C43.1967 9.66733 42.9027 9.588 42.5947 9.588C42.0067 9.588 41.5681 9.83533 41.2787 10.33C40.9894 10.8153 40.8447 11.4733 40.8447 12.304C40.8447 12.668 40.8727 13.0087 40.9287 13.326C40.9847 13.634 41.0781 13.9373 41.2087 14.236C41.3394 14.5253 41.5261 14.754 41.7687 14.922C42.0207 15.09 42.3194 15.174 42.6647 15.174C43.0194 15.174 43.3274 15.0853 43.5887 14.908C43.8594 14.7213 44.0181 14.4973 44.0647 14.236ZM51.72 9.602C52.3547 8.91133 53.218 8.566 54.31 8.566C55.402 8.566 56.2513 8.89733 56.858 9.56C57.4647 10.2227 57.768 11.1513 57.768 12.346C57.768 13.5687 57.4647 14.5207 56.858 15.202C56.2513 15.8833 55.3973 16.224 54.296 16.224C53.1947 16.224 52.3313 15.888 51.706 15.216C51.0807 14.544 50.768 13.6107 50.768 12.416C50.768 11.2307 51.0853 10.2927 51.72 9.602ZM55.934 10.33C55.5327 9.81667 54.982 9.56 54.282 9.56C53.582 9.56 53.0267 9.81667 52.616 10.33C52.2053 10.8433 52 11.5293 52 12.388C52 13.2747 52.2007 13.97 52.602 14.474C53.0127 14.9687 53.582 15.216 54.31 15.216C55.01 15.216 55.556 14.964 55.948 14.46C56.3493 13.956 56.55 13.2607 56.55 12.374C56.55 11.5153 56.3447 10.834 55.934 10.33ZM60.3751 16H59.1851V8.776H60.3751V11.646H63.9871V8.776H65.1771V16H63.9871V12.696H60.3751V16ZM68.7844 14.446V16H67.2304V14.446H68.7844ZM68.7844 8.776V10.33H67.2304V8.776H68.7844ZM74.5568 7.586L73.0308 8.118L73.9548 9.378L73.3808 9.798L72.4148 8.482L71.4908 9.798L70.8748 9.378L71.7848 8.118L70.3008 7.586L70.5388 6.9L72.0368 7.46V5.878H72.7928V7.46L74.2768 6.9L74.5568 7.586Z" fill="#757575"/>
</svg>
