<svg width="87" height="426" viewBox="0 0 87 426" fill="none" xmlns="http://www.w3.org/2000/svg">
<path d="M15.128 425.347L18.544 421.977L15.128 421.977L11.7119 421.977L15.128 425.347Z" fill="#757575"/>
<path d="M15.128 411L15.128 425.347M15.128 425.347L18.544 421.977L11.7119 421.977L15.128 425.347Z" stroke="#757575" stroke-width="0.683211"/>
<path d="M15.128 365L11.7119 368.371L15.128 368.371L18.544 368.371L15.128 365Z" fill="#A68E52"/>
<path d="M15.128 379.347L15.128 365M15.128 365L11.7119 368.371L18.544 368.371L15.128 365Z" stroke="#A68E52" stroke-width="0.683211"/>
<circle cx="14.5" cy="74.5" r="1.5" fill="#A68E52"/>
<circle cx="14.5" cy="147.5" r="1.5" fill="#A68E52"/>
<circle cx="14.5" cy="1.5" r="1.5" fill="#A68E52"/>
<circle cx="14.5" cy="220.5" r="1.5" fill="#A68E52"/>
<circle cx="14.5" cy="293.5" r="1.5" fill="#A68E52"/>
</svg>
