<svg width="189" height="260" viewBox="0 0 189 260" fill="none" xmlns="http://www.w3.org/2000/svg">
<path d="M24.6 133.47C24.6 133.854 24.648 134.136 24.744 134.316C24.84 134.484 25.02 134.604 25.284 134.676C25.56 134.748 25.998 134.784 26.598 134.784C26.634 134.784 26.652 134.82 26.652 134.892C26.652 134.964 26.634 135 26.598 135C26.106 135 25.722 134.994 25.446 134.982L23.88 134.964L22.638 134.982C22.41 134.994 22.098 135 21.702 135C21.678 135 21.666 134.964 21.666 134.892C21.666 134.82 21.678 134.784 21.702 134.784C22.134 134.784 22.446 134.754 22.638 134.694C22.842 134.634 22.98 134.52 23.052 134.352C23.124 134.172 23.16 133.902 23.16 133.542V125.208C23.16 124.848 23.124 124.584 23.052 124.416C22.98 124.248 22.842 124.134 22.638 124.074C22.446 124.002 22.134 123.966 21.702 123.966C21.678 123.966 21.666 123.93 21.666 123.858C21.666 123.786 21.678 123.75 21.702 123.75L22.638 123.768C23.142 123.792 23.55 123.804 23.862 123.804C24.15 123.804 24.492 123.786 24.888 123.75C25.032 123.75 25.254 123.744 25.554 123.732C25.866 123.708 26.136 123.696 26.364 123.696C27.492 123.696 28.398 123.948 29.082 124.452C29.766 124.944 30.108 125.694 30.108 126.702C30.108 127.482 29.91 128.142 29.514 128.682C29.13 129.222 28.632 129.624 28.02 129.888C27.42 130.152 26.796 130.284 26.148 130.284C25.8 130.284 25.512 130.254 25.284 130.194C25.248 130.194 25.23 130.164 25.23 130.104C25.23 130.068 25.236 130.032 25.248 129.996C25.272 129.96 25.296 129.948 25.32 129.96C25.512 130.008 25.728 130.032 25.968 130.032C26.676 130.032 27.276 129.774 27.768 129.258C28.26 128.742 28.506 127.998 28.506 127.026C28.506 126.078 28.266 125.34 27.786 124.812C27.306 124.272 26.67 124.002 25.878 124.002C25.518 124.002 25.248 124.032 25.068 124.092C24.9 124.14 24.78 124.254 24.708 124.434C24.636 124.602 24.6 124.872 24.6 125.244V133.47ZM37.7868 134.028C37.8348 134.028 37.8648 134.058 37.8768 134.118C37.9008 134.166 37.8888 134.202 37.8408 134.226L35.9868 135.108C35.9388 135.132 35.8848 135.144 35.8248 135.144C35.6688 135.144 35.5188 135.048 35.3748 134.856C35.2428 134.652 35.1528 134.376 35.1048 134.028L34.0788 134.586C33.3948 134.946 32.8248 135.126 32.3688 135.126C31.9968 135.126 31.7028 135.03 31.4868 134.838C31.2828 134.634 31.1808 134.37 31.1808 134.046C31.1808 133.698 31.3068 133.428 31.5588 133.236C31.8228 133.044 32.3028 132.828 32.9988 132.588L35.0688 131.868V130.41C35.0688 129.642 34.9728 129.096 34.7808 128.772C34.6008 128.436 34.3368 128.268 33.9888 128.268C33.6168 128.268 33.3228 128.406 33.1068 128.682C32.9028 128.946 32.7768 129.294 32.7288 129.726C32.6808 130.254 32.4168 130.518 31.9368 130.518C31.7208 130.518 31.5528 130.464 31.4328 130.356C31.3128 130.248 31.2528 130.098 31.2528 129.906C31.2528 129.618 31.4388 129.318 31.8108 129.006C32.1948 128.682 32.6508 128.418 33.1788 128.214C33.7068 127.998 34.1808 127.89 34.6008 127.89C35.1048 127.89 35.5128 128.058 35.8248 128.394C36.1368 128.718 36.2928 129.21 36.2928 129.87V133.056C36.2928 133.452 36.3468 133.746 36.4548 133.938C36.5748 134.13 36.7548 134.226 36.9948 134.226C37.2108 134.226 37.4688 134.16 37.7688 134.028H37.7868ZM35.0688 133.758V133.578V132.12L33.4848 132.714C33.1968 132.822 32.9868 132.948 32.8548 133.092C32.7348 133.224 32.6748 133.392 32.6748 133.596C32.6748 133.848 32.7468 134.046 32.8908 134.19C33.0348 134.334 33.2208 134.406 33.4488 134.406C33.7128 134.406 33.9768 134.334 34.2408 134.19L35.0688 133.758ZM41.8714 131.112C42.5434 131.172 43.0654 131.388 43.4374 131.76C43.8214 132.132 44.0134 132.588 44.0134 133.128C44.0134 133.788 43.7374 134.304 43.1854 134.676C42.6334 135.036 41.9254 135.216 41.0614 135.216C40.6534 135.216 40.2634 135.174 39.8914 135.09C39.5194 135.018 39.2074 134.916 38.9554 134.784C38.8714 134.736 38.8174 134.7 38.7934 134.676C38.7694 134.64 38.7514 134.574 38.7394 134.478L38.5954 132.912C38.5954 132.876 38.6254 132.852 38.6854 132.84C38.7454 132.828 38.7814 132.846 38.7934 132.894C38.9974 133.518 39.3034 134.01 39.7114 134.37C40.1194 134.73 40.5994 134.91 41.1514 134.91C41.6194 134.91 41.9734 134.766 42.2134 134.478C42.4534 134.178 42.5734 133.77 42.5734 133.254C42.5734 131.958 41.8534 131.31 40.4134 131.31C40.3534 131.31 40.3174 131.28 40.3054 131.22C40.3054 131.148 40.3414 131.112 40.4134 131.112C41.0974 131.112 41.5834 130.992 41.8714 130.752C42.1714 130.512 42.3214 130.158 42.3214 129.69C42.3214 129.198 42.2134 128.826 41.9974 128.574C41.7814 128.31 41.4634 128.178 41.0434 128.178C40.5874 128.178 40.1974 128.334 39.8734 128.646C39.5494 128.958 39.2614 129.408 39.0094 129.996C38.9974 130.008 38.9734 130.014 38.9374 130.014C38.8294 130.014 38.7814 129.996 38.7934 129.96L39.2254 127.674C39.2254 127.65 39.2494 127.638 39.2974 127.638C39.3334 127.638 39.3694 127.65 39.4054 127.674C39.4414 127.686 39.4534 127.698 39.4414 127.71C39.4294 127.746 39.4234 127.8 39.4234 127.872C39.4234 128.076 39.5194 128.178 39.7114 128.178C39.8194 128.178 39.9874 128.136 40.2154 128.052C40.4794 127.968 40.7014 127.908 40.8814 127.872C41.0734 127.836 41.3134 127.818 41.6014 127.818C42.2494 127.818 42.7534 127.956 43.1134 128.232C43.4854 128.508 43.6714 128.874 43.6714 129.33C43.6714 129.714 43.5094 130.068 43.1854 130.392C42.8614 130.716 42.4234 130.956 41.8714 131.112ZM50.2946 127.818C50.7986 127.818 51.2606 127.95 51.6806 128.214C52.1126 128.478 52.4546 128.862 52.7066 129.366C52.9706 129.87 53.1026 130.458 53.1026 131.13C53.1026 132.054 52.8986 132.828 52.4906 133.452C52.0826 134.064 51.5786 134.514 50.9786 134.802C50.3786 135.09 49.7786 135.234 49.1786 135.234C48.8306 135.234 48.5186 135.204 48.2426 135.144C47.9786 135.096 47.6966 135.006 47.3966 134.874V138.492C47.3966 138.852 47.4386 139.116 47.5226 139.284C47.6186 139.452 47.7806 139.566 48.0086 139.626C48.2486 139.698 48.6206 139.734 49.1246 139.734C49.1606 139.734 49.1786 139.77 49.1786 139.842C49.1786 139.914 49.1606 139.95 49.1246 139.95C48.7046 139.95 48.3746 139.944 48.1346 139.932L46.7846 139.914L45.7046 139.932C45.5246 139.944 45.2726 139.95 44.9486 139.95C44.9246 139.95 44.9126 139.914 44.9126 139.842C44.9126 139.77 44.9246 139.734 44.9486 139.734C45.2966 139.734 45.5546 139.698 45.7226 139.626C45.9026 139.566 46.0226 139.452 46.0826 139.284C46.1426 139.116 46.1726 138.852 46.1726 138.492V129.51C46.1726 129.006 46.0766 128.676 45.8846 128.52C45.6926 128.352 45.3206 128.268 44.7686 128.268C44.7326 128.268 44.7146 128.232 44.7146 128.16C44.7146 128.088 44.7326 128.052 44.7686 128.052H47.0366C47.1806 128.052 47.2766 128.082 47.3246 128.142C47.3726 128.202 47.3966 128.322 47.3966 128.502V129.24C47.9006 128.748 48.3866 128.388 48.8546 128.16C49.3226 127.932 49.8026 127.818 50.2946 127.818ZM49.6646 134.838C50.2886 134.838 50.7866 134.568 51.1586 134.028C51.5426 133.476 51.7346 132.696 51.7346 131.688C51.7346 130.716 51.5126 129.96 51.0686 129.42C50.6366 128.88 50.0846 128.61 49.4126 128.61C49.0166 128.61 48.6566 128.694 48.3326 128.862C48.0206 129.03 47.7086 129.276 47.3966 129.6V133.758C47.6966 134.106 48.0206 134.376 48.3686 134.568C48.7166 134.748 49.1486 134.838 49.6646 134.838ZM60.4085 133.938C60.4445 133.938 60.4745 133.962 60.4985 134.01C60.5345 134.046 60.5405 134.082 60.5165 134.118C60.0965 134.502 59.6645 134.784 59.2205 134.964C58.7885 135.132 58.3205 135.216 57.8165 135.216C57.0965 135.216 56.4725 135.06 55.9445 134.748C55.4285 134.424 55.0325 133.998 54.7565 133.47C54.4925 132.942 54.3605 132.372 54.3605 131.76C54.3605 131.052 54.5285 130.404 54.8645 129.816C55.2125 129.216 55.6865 128.748 56.2865 128.412C56.8985 128.064 57.5705 127.89 58.3025 127.89C58.9745 127.89 59.4965 128.052 59.8685 128.376C60.2405 128.688 60.4265 129.12 60.4265 129.672C60.4265 129.972 60.3605 130.122 60.2285 130.122H59.3645L55.8185 130.158C55.7705 130.398 55.7465 130.692 55.7465 131.04C55.7465 132.072 55.9925 132.906 56.4845 133.542C56.9885 134.178 57.6785 134.496 58.5545 134.496C59.2505 134.496 59.8625 134.31 60.3905 133.938H60.4085ZM57.6725 128.25C57.2285 128.25 56.8505 128.394 56.5385 128.682C56.2265 128.958 56.0045 129.354 55.8725 129.87L58.9685 129.798C58.9565 129.318 58.8365 128.94 58.6085 128.664C58.3805 128.388 58.0685 128.25 57.6725 128.25ZM61.7069 135C61.6709 135 61.6529 134.964 61.6529 134.892C61.6529 134.82 61.6709 134.784 61.7069 134.784C62.0189 134.784 62.2469 134.748 62.3909 134.676C62.5469 134.604 62.6489 134.484 62.6969 134.316C62.7569 134.136 62.7869 133.866 62.7869 133.506V129.51C62.7869 129.15 62.7569 128.886 62.6969 128.718C62.6489 128.538 62.5469 128.418 62.3909 128.358C62.2469 128.298 62.0189 128.268 61.7069 128.268C61.6709 128.268 61.6529 128.232 61.6529 128.16C61.6529 128.088 61.6709 128.052 61.7069 128.052C62.0189 128.052 62.2649 128.058 62.4449 128.07L63.3629 128.088L64.2809 128.07C64.4489 128.058 64.6769 128.052 64.9649 128.052C64.9889 128.052 65.0009 128.088 65.0009 128.16C65.0009 128.232 64.9889 128.268 64.9649 128.268C64.6889 128.268 64.4849 128.298 64.3529 128.358C64.2209 128.418 64.1309 128.538 64.0829 128.718C64.0349 128.886 64.0109 129.15 64.0109 129.51V133.542C64.0109 133.926 64.0229 134.184 64.0469 134.316C64.0709 134.436 64.1249 134.514 64.2089 134.55C64.3049 134.586 64.4849 134.604 64.7489 134.604H66.4409C66.7169 134.604 66.8969 134.586 66.9809 134.55C67.0769 134.514 67.1369 134.436 67.1609 134.316C67.1969 134.184 67.2149 133.932 67.2149 133.56V129.51C67.2149 129.15 67.1909 128.886 67.1429 128.718C67.0949 128.538 66.9989 128.418 66.8549 128.358C66.7229 128.298 66.5069 128.268 66.2069 128.268C66.1709 128.268 66.1529 128.232 66.1529 128.16C66.1529 128.088 66.1709 128.052 66.2069 128.052C66.5069 128.052 66.7409 128.058 66.9089 128.07L67.8089 128.088L68.7089 128.07C68.8769 128.058 69.1049 128.052 69.3929 128.052C69.4289 128.052 69.4469 128.088 69.4469 128.16C69.4469 128.232 69.4289 128.268 69.3929 128.268C69.1169 128.268 68.9129 128.304 68.7809 128.376C68.6489 128.436 68.5589 128.55 68.5109 128.718C68.4629 128.886 68.4389 129.15 68.4389 129.51V133.542C68.4389 133.926 68.4509 134.184 68.4749 134.316C68.4989 134.436 68.5529 134.514 68.6369 134.55C68.7329 134.586 68.9189 134.604 69.1949 134.604H70.8869C71.1749 134.604 71.3609 134.586 71.4449 134.55C71.5409 134.514 71.6009 134.43 71.6249 134.298C71.6489 134.166 71.6609 133.902 71.6609 133.506V129.51C71.6609 129.15 71.6369 128.886 71.5889 128.718C71.5529 128.538 71.4689 128.418 71.3369 128.358C71.2169 128.298 71.0189 128.268 70.7429 128.268C70.7069 128.268 70.6889 128.232 70.6889 128.16C70.6889 128.088 70.7069 128.052 70.7429 128.052C71.0189 128.052 71.2349 128.058 71.3909 128.07L72.2549 128.088L73.2269 128.07C73.4069 128.058 73.6649 128.052 74.0009 128.052C74.0249 128.052 74.0369 128.088 74.0369 128.16C74.0369 128.232 74.0249 128.268 74.0009 128.268C73.6769 128.268 73.4369 128.298 73.2809 128.358C73.1249 128.418 73.0169 128.538 72.9569 128.718C72.9089 128.886 72.8849 129.15 72.8849 129.51V133.524C72.8849 133.884 72.9089 134.154 72.9569 134.334C73.0169 134.502 73.1189 134.622 73.2629 134.694C73.4189 134.754 73.6589 134.784 73.9829 134.784C74.0069 134.784 74.0189 134.82 74.0189 134.892C74.0189 134.964 74.0069 135 73.9829 135H61.7069ZM81.2385 133.938C81.2745 133.938 81.3045 133.962 81.3285 134.01C81.3645 134.046 81.3705 134.082 81.3465 134.118C80.9265 134.502 80.4945 134.784 80.0505 134.964C79.6185 135.132 79.1505 135.216 78.6465 135.216C77.9265 135.216 77.3025 135.06 76.7745 134.748C76.2585 134.424 75.8625 133.998 75.5865 133.47C75.3225 132.942 75.1905 132.372 75.1905 131.76C75.1905 131.052 75.3585 130.404 75.6945 129.816C76.0425 129.216 76.5165 128.748 77.1165 128.412C77.7285 128.064 78.4005 127.89 79.1325 127.89C79.8045 127.89 80.3265 128.052 80.6985 128.376C81.0705 128.688 81.2565 129.12 81.2565 129.672C81.2565 129.972 81.1905 130.122 81.0585 130.122H80.1945L76.6485 130.158C76.6005 130.398 76.5765 130.692 76.5765 131.04C76.5765 132.072 76.8225 132.906 77.3145 133.542C77.8185 134.178 78.5085 134.496 79.3845 134.496C80.0805 134.496 80.6925 134.31 81.2205 133.938H81.2385ZM78.5025 128.25C78.0585 128.25 77.6805 128.394 77.3685 128.682C77.0565 128.958 76.8345 129.354 76.7025 129.87L79.7985 129.798C79.7865 129.318 79.6665 128.94 79.4385 128.664C79.2105 128.388 78.8985 128.25 78.5025 128.25ZM90.7989 134.784C90.8229 134.784 90.8349 134.82 90.8349 134.892C90.8349 134.964 90.8229 135 90.7989 135C90.4749 135 90.2229 134.994 90.0429 134.982L89.1069 134.964L88.1169 134.982C87.9369 134.994 87.6909 135 87.3789 135C87.3429 135 87.3249 134.964 87.3249 134.892C87.3249 134.82 87.3429 134.784 87.3789 134.784C87.7029 134.784 87.9369 134.754 88.0809 134.694C88.2369 134.634 88.3389 134.52 88.3869 134.352C88.4469 134.172 88.4769 133.902 88.4769 133.542V131.706H84.8589V133.542C84.8589 133.902 84.8829 134.172 84.9309 134.352C84.9909 134.52 85.0929 134.634 85.2369 134.694C85.3929 134.754 85.6329 134.784 85.9569 134.784C85.9809 134.784 85.9929 134.82 85.9929 134.892C85.9929 134.964 85.9809 135 85.9569 135C85.6329 135 85.3809 134.994 85.2009 134.982L84.2649 134.964L83.2929 134.982C83.1129 134.994 82.8609 135 82.5369 135C82.5009 135 82.4829 134.964 82.4829 134.892C82.4829 134.82 82.5009 134.784 82.5369 134.784C82.8609 134.784 83.0949 134.754 83.2389 134.694C83.3949 134.634 83.4969 134.52 83.5449 134.352C83.6049 134.172 83.6349 133.902 83.6349 133.542V129.51C83.6349 129.15 83.6049 128.886 83.5449 128.718C83.4969 128.538 83.3949 128.418 83.2389 128.358C83.0949 128.298 82.8669 128.268 82.5549 128.268C82.5189 128.268 82.5009 128.232 82.5009 128.16C82.5009 128.088 82.5189 128.052 82.5549 128.052C82.8669 128.052 83.1129 128.058 83.2929 128.07L84.2649 128.088L85.2189 128.07C85.3989 128.058 85.6449 128.052 85.9569 128.052C85.9809 128.052 85.9929 128.088 85.9929 128.16C85.9929 128.232 85.9809 128.268 85.9569 128.268C85.6329 128.268 85.3929 128.304 85.2369 128.376C85.0929 128.448 84.9909 128.574 84.9309 128.754C84.8829 128.922 84.8589 129.186 84.8589 129.546V131.346H88.4769V129.51C88.4769 129.15 88.4469 128.886 88.3869 128.718C88.3389 128.538 88.2369 128.418 88.0809 128.358C87.9369 128.298 87.7089 128.268 87.3969 128.268C87.3609 128.268 87.3429 128.232 87.3429 128.16C87.3429 128.088 87.3609 128.052 87.3969 128.052C87.7089 128.052 87.9549 128.058 88.1349 128.07L89.1069 128.088L90.0609 128.07C90.2409 128.058 90.4869 128.052 90.7989 128.052C90.8229 128.052 90.8349 128.088 90.8349 128.16C90.8349 128.232 90.8229 128.268 90.7989 128.268C90.4749 128.268 90.2349 128.304 90.0789 128.376C89.9349 128.448 89.8329 128.574 89.7729 128.754C89.7249 128.922 89.7009 129.186 89.7009 129.546V133.542C89.7009 133.902 89.7249 134.172 89.7729 134.352C89.8329 134.52 89.9349 134.634 90.0789 134.694C90.2349 134.754 90.4749 134.784 90.7989 134.784ZM100.203 134.784C100.227 134.784 100.239 134.82 100.239 134.892C100.239 134.964 100.227 135 100.203 135C99.8792 135 99.6272 134.994 99.4472 134.982L98.5112 134.964L97.5212 134.982C97.3412 134.994 97.0952 135 96.7832 135C96.7472 135 96.7292 134.964 96.7292 134.892C96.7292 134.82 96.7472 134.784 96.7832 134.784C97.1072 134.784 97.3412 134.754 97.4852 134.694C97.6412 134.634 97.7432 134.52 97.7912 134.352C97.8512 134.172 97.8812 133.902 97.8812 133.542V129.978L94.2632 133.596C94.2632 133.944 94.2872 134.202 94.3352 134.37C94.3952 134.526 94.5032 134.634 94.6592 134.694C94.8152 134.754 95.0492 134.784 95.3612 134.784C95.3852 134.784 95.3972 134.82 95.3972 134.892C95.3972 134.964 95.3852 135 95.3612 135C95.0372 135 94.7852 134.994 94.6052 134.982L93.6692 134.964L92.6972 134.982C92.5172 134.994 92.2652 135 91.9412 135C91.9052 135 91.8872 134.964 91.8872 134.892C91.8872 134.82 91.9052 134.784 91.9412 134.784C92.2652 134.784 92.4992 134.754 92.6432 134.694C92.7992 134.634 92.9012 134.52 92.9492 134.352C93.0092 134.172 93.0392 133.902 93.0392 133.542V129.51C93.0392 129.15 93.0092 128.886 92.9492 128.718C92.9012 128.538 92.7992 128.418 92.6432 128.358C92.4992 128.298 92.2712 128.268 91.9592 128.268C91.9232 128.268 91.9052 128.232 91.9052 128.16C91.9052 128.088 91.9232 128.052 91.9592 128.052C92.2712 128.052 92.5172 128.058 92.6972 128.07L93.6692 128.088L94.6232 128.07C94.8032 128.058 95.0492 128.052 95.3612 128.052C95.3852 128.052 95.3972 128.088 95.3972 128.16C95.3972 128.232 95.3852 128.268 95.3612 128.268C95.0372 128.268 94.7972 128.304 94.6412 128.376C94.4972 128.448 94.3952 128.574 94.3352 128.754C94.2872 128.922 94.2632 129.186 94.2632 129.546V133.056L97.8812 129.438C97.8812 129.102 97.8512 128.856 97.7912 128.7C97.7432 128.532 97.6412 128.418 97.4852 128.358C97.3412 128.298 97.1132 128.268 96.8012 128.268C96.7652 128.268 96.7472 128.232 96.7472 128.16C96.7472 128.088 96.7652 128.052 96.8012 128.052C97.1132 128.052 97.3592 128.058 97.5392 128.07L98.5112 128.088L99.4652 128.07C99.6452 128.058 99.8912 128.052 100.203 128.052C100.227 128.052 100.239 128.088 100.239 128.16C100.239 128.232 100.227 128.268 100.203 128.268C99.8792 128.268 99.6392 128.304 99.4832 128.376C99.3392 128.448 99.2372 128.574 99.1772 128.754C99.1292 128.922 99.1052 129.186 99.1052 129.546V133.542C99.1052 133.902 99.1292 134.172 99.1772 134.352C99.2372 134.52 99.3392 134.634 99.4832 134.694C99.6392 134.754 99.8792 134.784 100.203 134.784ZM107.448 133.938C107.484 133.938 107.514 133.962 107.538 134.01C107.574 134.046 107.58 134.082 107.556 134.118C107.136 134.502 106.704 134.784 106.26 134.964C105.828 135.132 105.36 135.216 104.856 135.216C104.136 135.216 103.512 135.06 102.984 134.748C102.468 134.424 102.072 133.998 101.796 133.47C101.532 132.942 101.4 132.372 101.4 131.76C101.4 131.052 101.568 130.404 101.904 129.816C102.252 129.216 102.726 128.748 103.326 128.412C103.938 128.064 104.61 127.89 105.342 127.89C106.014 127.89 106.536 128.052 106.908 128.376C107.28 128.688 107.466 129.12 107.466 129.672C107.466 129.972 107.4 130.122 107.268 130.122H106.404L102.858 130.158C102.81 130.398 102.786 130.692 102.786 131.04C102.786 132.072 103.032 132.906 103.524 133.542C104.028 134.178 104.718 134.496 105.594 134.496C106.29 134.496 106.902 134.31 107.43 133.938H107.448ZM104.712 128.25C104.268 128.25 103.89 128.394 103.578 128.682C103.266 128.958 103.044 129.354 102.912 129.87L106.008 129.798C105.996 129.318 105.876 128.94 105.648 128.664C105.42 128.388 105.108 128.25 104.712 128.25ZM121.227 134.784C121.251 134.784 121.263 134.82 121.263 134.892C121.263 134.964 121.251 135 121.227 135C120.903 135 120.651 134.994 120.471 134.982L119.535 134.964L118.545 134.982C118.365 134.994 118.119 135 117.807 135C117.771 135 117.753 134.964 117.753 134.892C117.753 134.82 117.771 134.784 117.807 134.784C118.131 134.784 118.365 134.754 118.509 134.694C118.665 134.634 118.767 134.52 118.815 134.352C118.875 134.172 118.905 133.902 118.905 133.542V131.706H115.287V133.542C115.287 133.902 115.311 134.172 115.359 134.352C115.419 134.52 115.521 134.634 115.665 134.694C115.821 134.754 116.061 134.784 116.385 134.784C116.409 134.784 116.421 134.82 116.421 134.892C116.421 134.964 116.409 135 116.385 135C116.061 135 115.809 134.994 115.629 134.982L114.693 134.964L113.721 134.982C113.541 134.994 113.289 135 112.965 135C112.929 135 112.911 134.964 112.911 134.892C112.911 134.82 112.929 134.784 112.965 134.784C113.289 134.784 113.523 134.754 113.667 134.694C113.823 134.634 113.925 134.52 113.973 134.352C114.033 134.172 114.063 133.902 114.063 133.542V129.51C114.063 129.15 114.033 128.886 113.973 128.718C113.925 128.538 113.823 128.418 113.667 128.358C113.523 128.298 113.295 128.268 112.983 128.268C112.947 128.268 112.929 128.232 112.929 128.16C112.929 128.088 112.947 128.052 112.983 128.052C113.295 128.052 113.541 128.058 113.721 128.07L114.693 128.088L115.647 128.07C115.827 128.058 116.073 128.052 116.385 128.052C116.409 128.052 116.421 128.088 116.421 128.16C116.421 128.232 116.409 128.268 116.385 128.268C116.061 128.268 115.821 128.304 115.665 128.376C115.521 128.448 115.419 128.574 115.359 128.754C115.311 128.922 115.287 129.186 115.287 129.546V131.346H118.905V129.51C118.905 129.15 118.875 128.886 118.815 128.718C118.767 128.538 118.665 128.418 118.509 128.358C118.365 128.298 118.137 128.268 117.825 128.268C117.789 128.268 117.771 128.232 117.771 128.16C117.771 128.088 117.789 128.052 117.825 128.052C118.137 128.052 118.383 128.058 118.563 128.07L119.535 128.088L120.489 128.07C120.669 128.058 120.915 128.052 121.227 128.052C121.251 128.052 121.263 128.088 121.263 128.16C121.263 128.232 121.251 128.268 121.227 128.268C120.903 128.268 120.663 128.304 120.507 128.376C120.363 128.448 120.261 128.574 120.201 128.754C120.153 128.922 120.129 129.186 120.129 129.546V133.542C120.129 133.902 120.153 134.172 120.201 134.352C120.261 134.52 120.363 134.634 120.507 134.694C120.663 134.754 120.903 134.784 121.227 134.784ZM129.281 134.028C129.329 134.028 129.359 134.058 129.371 134.118C129.395 134.166 129.383 134.202 129.335 134.226L127.481 135.108C127.433 135.132 127.379 135.144 127.319 135.144C127.163 135.144 127.013 135.048 126.869 134.856C126.737 134.652 126.647 134.376 126.599 134.028L125.573 134.586C124.889 134.946 124.319 135.126 123.863 135.126C123.491 135.126 123.197 135.03 122.981 134.838C122.777 134.634 122.675 134.37 122.675 134.046C122.675 133.698 122.801 133.428 123.053 133.236C123.317 133.044 123.797 132.828 124.493 132.588L126.563 131.868V130.41C126.563 129.642 126.467 129.096 126.275 128.772C126.095 128.436 125.831 128.268 125.483 128.268C125.111 128.268 124.817 128.406 124.601 128.682C124.397 128.946 124.271 129.294 124.223 129.726C124.175 130.254 123.911 130.518 123.431 130.518C123.215 130.518 123.047 130.464 122.927 130.356C122.807 130.248 122.747 130.098 122.747 129.906C122.747 129.618 122.933 129.318 123.305 129.006C123.689 128.682 124.145 128.418 124.673 128.214C125.201 127.998 125.675 127.89 126.095 127.89C126.599 127.89 127.007 128.058 127.319 128.394C127.631 128.718 127.787 129.21 127.787 129.87V133.056C127.787 133.452 127.841 133.746 127.949 133.938C128.069 134.13 128.249 134.226 128.489 134.226C128.705 134.226 128.963 134.16 129.263 134.028H129.281ZM126.563 133.758V133.578V132.12L124.979 132.714C124.691 132.822 124.481 132.948 124.349 133.092C124.229 133.224 124.169 133.392 124.169 133.596C124.169 133.848 124.241 134.046 124.385 134.19C124.529 134.334 124.715 134.406 124.943 134.406C125.207 134.406 125.471 134.334 125.735 134.19L126.563 133.758ZM25.176 161.216C24.396 161.216 23.736 161.048 23.196 160.712C22.668 160.364 22.272 159.92 22.008 159.38C21.756 158.84 21.63 158.27 21.63 157.67C21.63 156.902 21.828 156.236 22.224 155.672C22.62 155.096 23.13 154.658 23.754 154.358C24.378 154.046 25.014 153.89 25.662 153.89C26.202 153.89 26.694 154.004 27.138 154.232C27.582 154.448 27.804 154.724 27.804 155.06C27.804 155.24 27.738 155.396 27.606 155.528C27.474 155.66 27.294 155.726 27.066 155.726C26.67 155.726 26.37 155.492 26.166 155.024C26.034 154.748 25.89 154.55 25.734 154.43C25.578 154.31 25.344 154.25 25.032 154.25C24.408 154.25 23.916 154.514 23.556 155.042C23.208 155.558 23.034 156.248 23.034 157.112C23.034 158.108 23.274 158.924 23.754 159.56C24.234 160.196 24.972 160.514 25.968 160.514C26.628 160.514 27.228 160.328 27.768 159.956H27.804C27.84 159.956 27.87 159.974 27.894 160.01C27.93 160.046 27.93 160.076 27.894 160.1C27.474 160.484 27.048 160.766 26.616 160.946C26.184 161.126 25.704 161.216 25.176 161.216ZM30.5947 161C30.5707 161 30.5587 160.964 30.5587 160.892C30.5587 160.82 30.5707 160.784 30.5947 160.784C30.9187 160.784 31.1587 160.754 31.3147 160.694C31.4707 160.634 31.5727 160.52 31.6207 160.352C31.6807 160.172 31.7107 159.902 31.7107 159.542V155.546C31.7107 155.078 31.6627 154.766 31.5667 154.61C31.4707 154.442 31.2667 154.358 30.9547 154.358C29.9947 154.358 29.4487 155.036 29.3167 156.392C29.3047 156.416 29.2627 156.428 29.1907 156.428C29.1307 156.428 29.1007 156.416 29.1007 156.392L29.0647 155.222C29.0407 154.742 29.0287 154.4 29.0287 154.196C29.0287 154.124 29.0347 154.082 29.0467 154.07C29.0587 154.046 29.1007 154.034 29.1727 154.034C29.4127 154.034 29.6287 154.04 29.8207 154.052L32.2687 154.07L34.7527 154.052C34.9567 154.04 35.1907 154.034 35.4547 154.034C35.5267 154.034 35.5687 154.046 35.5807 154.07C35.5927 154.082 35.5987 154.124 35.5987 154.196C35.5987 154.4 35.5867 154.742 35.5627 155.222L35.5267 156.392C35.5267 156.416 35.4907 156.428 35.4187 156.428C35.3467 156.428 35.3107 156.416 35.3107 156.392C35.1787 155.036 34.6327 154.358 33.6727 154.358C33.3607 154.358 33.1567 154.442 33.0607 154.61C32.9767 154.766 32.9347 155.078 32.9347 155.546V159.542C32.9347 159.902 32.9587 160.172 33.0067 160.352C33.0667 160.52 33.1687 160.634 33.3127 160.694C33.4687 160.754 33.7027 160.784 34.0147 160.784C34.0507 160.784 34.0687 160.82 34.0687 160.892C34.0687 160.964 34.0507 161 34.0147 161C33.7027 161 33.4567 160.994 33.2767 160.982L32.3407 160.964L31.3687 160.982C31.1887 160.994 30.9307 161 30.5947 161ZM41.8043 153.818C42.3083 153.818 42.7703 153.95 43.1903 154.214C43.6223 154.478 43.9643 154.862 44.2163 155.366C44.4803 155.87 44.6123 156.458 44.6123 157.13C44.6123 158.054 44.4083 158.828 44.0003 159.452C43.5923 160.064 43.0883 160.514 42.4883 160.802C41.8883 161.09 41.2883 161.234 40.6883 161.234C40.3403 161.234 40.0283 161.204 39.7523 161.144C39.4883 161.096 39.2063 161.006 38.9063 160.874V164.492C38.9063 164.852 38.9483 165.116 39.0323 165.284C39.1283 165.452 39.2903 165.566 39.5183 165.626C39.7583 165.698 40.1303 165.734 40.6343 165.734C40.6703 165.734 40.6883 165.77 40.6883 165.842C40.6883 165.914 40.6703 165.95 40.6343 165.95C40.2143 165.95 39.8843 165.944 39.6443 165.932L38.2943 165.914L37.2143 165.932C37.0343 165.944 36.7823 165.95 36.4583 165.95C36.4343 165.95 36.4223 165.914 36.4223 165.842C36.4223 165.77 36.4343 165.734 36.4583 165.734C36.8063 165.734 37.0643 165.698 37.2323 165.626C37.4123 165.566 37.5323 165.452 37.5923 165.284C37.6523 165.116 37.6823 164.852 37.6823 164.492V155.51C37.6823 155.006 37.5863 154.676 37.3943 154.52C37.2023 154.352 36.8303 154.268 36.2783 154.268C36.2423 154.268 36.2243 154.232 36.2243 154.16C36.2243 154.088 36.2423 154.052 36.2783 154.052H38.5463C38.6903 154.052 38.7863 154.082 38.8343 154.142C38.8823 154.202 38.9063 154.322 38.9063 154.502V155.24C39.4103 154.748 39.8963 154.388 40.3643 154.16C40.8323 153.932 41.3123 153.818 41.8043 153.818ZM41.1743 160.838C41.7983 160.838 42.2963 160.568 42.6683 160.028C43.0523 159.476 43.2443 158.696 43.2443 157.688C43.2443 156.716 43.0223 155.96 42.5783 155.42C42.1463 154.88 41.5943 154.61 40.9223 154.61C40.5263 154.61 40.1663 154.694 39.8423 154.862C39.5303 155.03 39.2183 155.276 38.9063 155.6V159.758C39.2063 160.106 39.5303 160.376 39.8783 160.568C40.2263 160.748 40.6583 160.838 41.1743 160.838ZM49.4342 161.234C48.7262 161.234 48.1022 161.066 47.5622 160.73C47.0222 160.382 46.6022 159.92 46.3022 159.344C46.0142 158.756 45.8702 158.12 45.8702 157.436C45.8702 156.656 46.0622 155.996 46.4462 155.456C46.8302 154.904 47.3222 154.496 47.9222 154.232C48.5222 153.956 49.1342 153.818 49.7582 153.818C50.4662 153.818 51.0902 153.992 51.6302 154.34C52.1702 154.688 52.5842 155.15 52.8722 155.726C53.1602 156.29 53.3042 156.89 53.3042 157.526C53.3042 158.258 53.1242 158.906 52.7642 159.47C52.4162 160.034 51.9482 160.472 51.3602 160.784C50.7722 161.084 50.1302 161.234 49.4342 161.234ZM49.9562 160.892C50.5562 160.892 51.0182 160.658 51.3422 160.19C51.6662 159.722 51.8282 159.02 51.8282 158.084C51.8282 157.304 51.7082 156.62 51.4682 156.032C51.2402 155.432 50.9222 154.976 50.5142 154.664C50.1062 154.34 49.6502 154.178 49.1462 154.178C48.5582 154.178 48.1022 154.406 47.7782 154.862C47.4662 155.306 47.3102 155.966 47.3102 156.842C47.3102 157.598 47.4242 158.288 47.6522 158.912C47.8802 159.524 48.1922 160.01 48.5882 160.37C48.9962 160.718 49.4522 160.892 49.9562 160.892ZM62.7618 160.784C62.7858 160.784 62.7978 160.82 62.7978 160.892C62.7978 160.964 62.7858 161 62.7618 161C62.4378 161 62.1858 160.994 62.0058 160.982L61.0698 160.964L60.0798 160.982C59.8998 160.994 59.6538 161 59.3418 161C59.3058 161 59.2878 160.964 59.2878 160.892C59.2878 160.82 59.3058 160.784 59.3418 160.784C59.6658 160.784 59.8998 160.754 60.0438 160.694C60.1998 160.634 60.3018 160.52 60.3498 160.352C60.4098 160.172 60.4398 159.902 60.4398 159.542V155.978L56.8218 159.596C56.8218 159.944 56.8458 160.202 56.8938 160.37C56.9538 160.526 57.0618 160.634 57.2178 160.694C57.3738 160.754 57.6078 160.784 57.9198 160.784C57.9438 160.784 57.9558 160.82 57.9558 160.892C57.9558 160.964 57.9438 161 57.9198 161C57.5958 161 57.3438 160.994 57.1638 160.982L56.2278 160.964L55.2558 160.982C55.0758 160.994 54.8238 161 54.4998 161C54.4638 161 54.4458 160.964 54.4458 160.892C54.4458 160.82 54.4638 160.784 54.4998 160.784C54.8238 160.784 55.0578 160.754 55.2018 160.694C55.3578 160.634 55.4598 160.52 55.5078 160.352C55.5678 160.172 55.5978 159.902 55.5978 159.542V155.51C55.5978 155.15 55.5678 154.886 55.5078 154.718C55.4598 154.538 55.3578 154.418 55.2018 154.358C55.0578 154.298 54.8298 154.268 54.5178 154.268C54.4818 154.268 54.4638 154.232 54.4638 154.16C54.4638 154.088 54.4818 154.052 54.5178 154.052C54.8298 154.052 55.0758 154.058 55.2558 154.07L56.2278 154.088L57.1818 154.07C57.3618 154.058 57.6078 154.052 57.9198 154.052C57.9438 154.052 57.9558 154.088 57.9558 154.16C57.9558 154.232 57.9438 154.268 57.9198 154.268C57.5958 154.268 57.3558 154.304 57.1998 154.376C57.0558 154.448 56.9538 154.574 56.8938 154.754C56.8458 154.922 56.8218 155.186 56.8218 155.546V159.056L60.4398 155.438C60.4398 155.102 60.4098 154.856 60.3498 154.7C60.3018 154.532 60.1998 154.418 60.0438 154.358C59.8998 154.298 59.6718 154.268 59.3598 154.268C59.3238 154.268 59.3058 154.232 59.3058 154.16C59.3058 154.088 59.3238 154.052 59.3598 154.052C59.6718 154.052 59.9178 154.058 60.0978 154.07L61.0698 154.088L62.0238 154.07C62.2038 154.058 62.4498 154.052 62.7618 154.052C62.7858 154.052 62.7978 154.088 62.7978 154.16C62.7978 154.232 62.7858 154.268 62.7618 154.268C62.4378 154.268 62.1978 154.304 62.0418 154.376C61.8978 154.448 61.7958 154.574 61.7358 154.754C61.6878 154.922 61.6638 155.186 61.6638 155.546V159.542C61.6638 159.902 61.6878 160.172 61.7358 160.352C61.7958 160.52 61.8978 160.634 62.0418 160.694C62.1978 160.754 62.4378 160.784 62.7618 160.784ZM65.4521 161C65.4281 161 65.4161 160.964 65.4161 160.892C65.4161 160.82 65.4281 160.784 65.4521 160.784C65.7761 160.784 66.0161 160.754 66.1721 160.694C66.3281 160.634 66.4301 160.52 66.4781 160.352C66.5381 160.172 66.5681 159.902 66.5681 159.542V155.546C66.5681 155.078 66.5201 154.766 66.4241 154.61C66.3281 154.442 66.1241 154.358 65.8121 154.358C64.8521 154.358 64.3061 155.036 64.1741 156.392C64.1621 156.416 64.1201 156.428 64.0481 156.428C63.9881 156.428 63.9581 156.416 63.9581 156.392L63.9221 155.222C63.8981 154.742 63.8861 154.4 63.8861 154.196C63.8861 154.124 63.8921 154.082 63.9041 154.07C63.9161 154.046 63.9581 154.034 64.0301 154.034C64.2701 154.034 64.4861 154.04 64.6781 154.052L67.1261 154.07L69.6101 154.052C69.8141 154.04 70.0481 154.034 70.3121 154.034C70.3841 154.034 70.4261 154.046 70.4381 154.07C70.4501 154.082 70.4561 154.124 70.4561 154.196C70.4561 154.4 70.4441 154.742 70.4201 155.222L70.3841 156.392C70.3841 156.416 70.3481 156.428 70.2761 156.428C70.2041 156.428 70.1681 156.416 70.1681 156.392C70.0361 155.036 69.4901 154.358 68.5301 154.358C68.2181 154.358 68.0141 154.442 67.9181 154.61C67.8341 154.766 67.7921 155.078 67.7921 155.546V159.542C67.7921 159.902 67.8161 160.172 67.8641 160.352C67.9241 160.52 68.0261 160.634 68.1701 160.694C68.3261 160.754 68.5601 160.784 68.8721 160.784C68.9081 160.784 68.9261 160.82 68.9261 160.892C68.9261 160.964 68.9081 161 68.8721 161C68.5601 161 68.3141 160.994 68.1341 160.982L67.1981 160.964L66.2261 160.982C66.0461 160.994 65.7881 161 65.4521 161ZM77.6878 159.938C77.7238 159.938 77.7538 159.962 77.7778 160.01C77.8138 160.046 77.8198 160.082 77.7958 160.118C77.3758 160.502 76.9438 160.784 76.4998 160.964C76.0678 161.132 75.5998 161.216 75.0958 161.216C74.3758 161.216 73.7518 161.06 73.2238 160.748C72.7078 160.424 72.3118 159.998 72.0358 159.47C71.7718 158.942 71.6398 158.372 71.6398 157.76C71.6398 157.052 71.8078 156.404 72.1438 155.816C72.4918 155.216 72.9658 154.748 73.5658 154.412C74.1778 154.064 74.8498 153.89 75.5818 153.89C76.2538 153.89 76.7758 154.052 77.1478 154.376C77.5198 154.688 77.7058 155.12 77.7058 155.672C77.7058 155.972 77.6398 156.122 77.5078 156.122H76.6438L73.0978 156.158C73.0498 156.398 73.0258 156.692 73.0258 157.04C73.0258 158.072 73.2718 158.906 73.7638 159.542C74.2678 160.178 74.9578 160.496 75.8338 160.496C76.5298 160.496 77.1418 160.31 77.6698 159.938H77.6878ZM74.9518 154.25C74.5078 154.25 74.1298 154.394 73.8178 154.682C73.5058 154.958 73.2838 155.354 73.1518 155.87L76.2478 155.798C76.2358 155.318 76.1158 154.94 75.8878 154.664C75.6598 154.388 75.3478 154.25 74.9518 154.25ZM79.4182 161.144C78.8542 161.144 78.5722 160.922 78.5722 160.478C78.5722 160.262 78.6322 160.1 78.7522 159.992C78.8722 159.872 79.0222 159.812 79.2022 159.812C79.2742 159.812 79.3642 159.824 79.4722 159.848C79.5922 159.872 79.6822 159.884 79.7422 159.884C80.1262 159.884 80.4502 159.638 80.7142 159.146C80.9902 158.654 81.1942 158.048 81.3262 157.328C81.4702 156.596 81.5422 155.9 81.5422 155.24C81.5422 154.844 81.4522 154.586 81.2722 154.466C81.1042 154.346 80.7622 154.274 80.2462 154.25C80.2102 154.25 80.1922 154.214 80.1922 154.142C80.1922 154.07 80.2102 154.034 80.2462 154.034L83.1442 154.052H86.2762C86.3122 154.052 86.3302 154.088 86.3302 154.16C86.3302 154.232 86.3122 154.268 86.2762 154.268C85.9522 154.28 85.7182 154.316 85.5742 154.376C85.4302 154.436 85.3282 154.55 85.2682 154.718C85.2202 154.886 85.1962 155.162 85.1962 155.546V159.542C85.1962 159.926 85.2202 160.202 85.2682 160.37C85.3282 160.526 85.4242 160.634 85.5562 160.694C85.7002 160.742 85.9402 160.772 86.2762 160.784C86.3122 160.784 86.3302 160.82 86.3302 160.892C86.3302 160.964 86.3122 161 86.2762 161C85.9642 161 85.7242 160.994 85.5562 160.982L84.6022 160.964L83.5942 160.982C83.4142 160.994 83.1742 161 82.8742 161C82.8382 161 82.8202 160.964 82.8202 160.892C82.8202 160.82 82.8382 160.784 82.8742 160.784C83.2102 160.772 83.4502 160.742 83.5942 160.694C83.7382 160.634 83.8342 160.526 83.8822 160.37C83.9422 160.202 83.9722 159.926 83.9722 159.542V155.51C83.9722 155.102 83.9602 154.832 83.9362 154.7C83.9122 154.568 83.8522 154.484 83.7562 154.448C83.6722 154.412 83.4922 154.394 83.2162 154.394H83.0542C82.7422 154.394 82.5202 154.424 82.3882 154.484C82.2682 154.532 82.1842 154.628 82.1362 154.772C82.0882 154.904 82.0462 155.144 82.0102 155.492L81.9742 155.852C81.8662 156.86 81.7342 157.724 81.5782 158.444C81.4342 159.152 81.1882 159.782 80.8402 160.334C80.4922 160.874 80.0182 161.144 79.4182 161.144ZM91.4737 156.914C93.1417 156.914 93.9757 157.538 93.9757 158.786C93.9757 159.446 93.7357 159.986 93.2557 160.406C92.7757 160.826 92.1577 161.036 91.4017 161.036C91.2217 161.036 90.8797 161.024 90.3757 161C89.7997 160.976 89.3917 160.964 89.1517 160.964L88.1797 160.982C87.9997 160.994 87.7477 161 87.4237 161C87.3877 161 87.3697 160.964 87.3697 160.892C87.3697 160.82 87.3877 160.784 87.4237 160.784C87.7477 160.784 87.9817 160.754 88.1257 160.694C88.2817 160.634 88.3837 160.52 88.4317 160.352C88.4917 160.172 88.5217 159.902 88.5217 159.542V155.51C88.5217 155.15 88.4917 154.886 88.4317 154.718C88.3837 154.538 88.2817 154.418 88.1257 154.358C87.9817 154.298 87.7537 154.268 87.4417 154.268C87.4057 154.268 87.3877 154.232 87.3877 154.16C87.3877 154.088 87.4057 154.052 87.4417 154.052C87.7537 154.052 87.9997 154.058 88.1797 154.07L89.1517 154.088L90.2137 154.07C90.4177 154.058 90.6937 154.052 91.0417 154.052C91.0777 154.052 91.0957 154.088 91.0957 154.16C91.0957 154.232 91.0777 154.268 91.0417 154.268C90.6577 154.268 90.3757 154.304 90.1957 154.376C90.0157 154.448 89.8957 154.574 89.8357 154.754C89.7757 154.922 89.7457 155.186 89.7457 155.546V157.13C90.2257 156.986 90.8017 156.914 91.4737 156.914ZM91.0417 160.766C92.0977 160.766 92.6257 160.238 92.6257 159.182C92.6257 158.582 92.4817 158.114 92.1937 157.778C91.9057 157.43 91.4557 157.256 90.8437 157.256C90.4357 157.256 90.0697 157.31 89.7457 157.418V159.542C89.7457 159.986 89.8357 160.304 90.0157 160.496C90.1957 160.676 90.5377 160.766 91.0417 160.766ZM98.5471 161.216C97.7671 161.216 97.1071 161.048 96.5671 160.712C96.0391 160.364 95.6431 159.92 95.3791 159.38C95.1271 158.84 95.0011 158.27 95.0011 157.67C95.0011 156.902 95.1991 156.236 95.5951 155.672C95.9911 155.096 96.5011 154.658 97.1251 154.358C97.7491 154.046 98.3851 153.89 99.0331 153.89C99.5731 153.89 100.065 154.004 100.509 154.232C100.953 154.448 101.175 154.724 101.175 155.06C101.175 155.24 101.109 155.396 100.977 155.528C100.845 155.66 100.665 155.726 100.437 155.726C100.041 155.726 99.7411 155.492 99.5371 155.024C99.4051 154.748 99.2611 154.55 99.1051 154.43C98.9491 154.31 98.7151 154.25 98.4031 154.25C97.7791 154.25 97.2871 154.514 96.9271 155.042C96.5791 155.558 96.4051 156.248 96.4051 157.112C96.4051 158.108 96.6451 158.924 97.1251 159.56C97.6051 160.196 98.3431 160.514 99.3391 160.514C99.9991 160.514 100.599 160.328 101.139 159.956H101.175C101.211 159.956 101.241 159.974 101.265 160.01C101.301 160.046 101.301 160.076 101.265 160.1C100.845 160.484 100.419 160.766 99.9871 160.946C99.5551 161.126 99.0751 161.216 98.5471 161.216ZM103.966 161C103.942 161 103.93 160.964 103.93 160.892C103.93 160.82 103.942 160.784 103.966 160.784C104.29 160.784 104.53 160.754 104.686 160.694C104.842 160.634 104.944 160.52 104.992 160.352C105.052 160.172 105.082 159.902 105.082 159.542V155.546C105.082 155.078 105.034 154.766 104.938 154.61C104.842 154.442 104.638 154.358 104.326 154.358C103.366 154.358 102.82 155.036 102.688 156.392C102.676 156.416 102.634 156.428 102.562 156.428C102.502 156.428 102.472 156.416 102.472 156.392L102.436 155.222C102.412 154.742 102.4 154.4 102.4 154.196C102.4 154.124 102.406 154.082 102.418 154.07C102.43 154.046 102.472 154.034 102.544 154.034C102.784 154.034 103 154.04 103.192 154.052L105.64 154.07L108.124 154.052C108.328 154.04 108.562 154.034 108.826 154.034C108.898 154.034 108.94 154.046 108.952 154.07C108.964 154.082 108.97 154.124 108.97 154.196C108.97 154.4 108.958 154.742 108.934 155.222L108.898 156.392C108.898 156.416 108.862 156.428 108.79 156.428C108.718 156.428 108.682 156.416 108.682 156.392C108.55 155.036 108.004 154.358 107.044 154.358C106.732 154.358 106.528 154.442 106.432 154.61C106.348 154.766 106.306 155.078 106.306 155.546V159.542C106.306 159.902 106.33 160.172 106.378 160.352C106.438 160.52 106.54 160.634 106.684 160.694C106.84 160.754 107.074 160.784 107.386 160.784C107.422 160.784 107.44 160.82 107.44 160.892C107.44 160.964 107.422 161 107.386 161C107.074 161 106.828 160.994 106.648 160.982L105.712 160.964L104.74 160.982C104.56 160.994 104.302 161 103.966 161ZM114.797 157.166C116.177 157.298 116.867 157.844 116.867 158.804C116.867 159.452 116.603 159.986 116.075 160.406C115.559 160.826 114.893 161.036 114.077 161.036C113.897 161.036 113.555 161.024 113.051 161C112.475 160.976 112.067 160.964 111.827 160.964L110.855 160.982C110.675 160.994 110.423 161 110.099 161C110.063 161 110.045 160.964 110.045 160.892C110.045 160.82 110.063 160.784 110.099 160.784C110.423 160.784 110.657 160.754 110.801 160.694C110.957 160.634 111.059 160.52 111.107 160.352C111.167 160.172 111.197 159.902 111.197 159.542V155.51C111.197 155.15 111.167 154.886 111.107 154.718C111.059 154.538 110.957 154.418 110.801 154.358C110.657 154.298 110.429 154.268 110.117 154.268C110.081 154.268 110.063 154.232 110.063 154.16C110.063 154.088 110.081 154.052 110.117 154.052L111.827 154.07L112.781 154.052C113.237 154.028 113.579 154.016 113.807 154.016C114.551 154.016 115.121 154.13 115.517 154.358C115.913 154.586 116.111 154.928 116.111 155.384C116.111 155.696 116.003 155.996 115.787 156.284C115.571 156.572 115.241 156.866 114.797 157.166ZM113.357 154.304C113.093 154.304 112.895 154.334 112.763 154.394C112.643 154.454 112.553 154.574 112.493 154.754C112.445 154.922 112.421 155.186 112.421 155.546V157.148H114.185H114.365C114.629 156.812 114.761 156.374 114.761 155.834C114.761 155.294 114.647 154.904 114.419 154.664C114.191 154.424 113.837 154.304 113.357 154.304ZM113.753 160.712C114.905 160.712 115.481 160.208 115.481 159.2C115.481 158.66 115.325 158.234 115.013 157.922C114.701 157.61 114.215 157.454 113.555 157.454H112.421V159.542C112.421 159.974 112.511 160.28 112.691 160.46C112.871 160.628 113.225 160.712 113.753 160.712ZM121.698 161.234C120.99 161.234 120.366 161.066 119.826 160.73C119.286 160.382 118.866 159.92 118.566 159.344C118.278 158.756 118.134 158.12 118.134 157.436C118.134 156.656 118.326 155.996 118.71 155.456C119.094 154.904 119.586 154.496 120.186 154.232C120.786 153.956 121.398 153.818 122.022 153.818C122.73 153.818 123.354 153.992 123.894 154.34C124.434 154.688 124.848 155.15 125.136 155.726C125.424 156.29 125.568 156.89 125.568 157.526C125.568 158.258 125.388 158.906 125.028 159.47C124.68 160.034 124.212 160.472 123.624 160.784C123.036 161.084 122.394 161.234 121.698 161.234ZM122.22 160.892C122.82 160.892 123.282 160.658 123.606 160.19C123.93 159.722 124.092 159.02 124.092 158.084C124.092 157.304 123.972 156.62 123.732 156.032C123.504 155.432 123.186 154.976 122.778 154.664C122.37 154.34 121.914 154.178 121.41 154.178C120.822 154.178 120.366 154.406 120.042 154.862C119.73 155.306 119.574 155.966 119.574 156.842C119.574 157.598 119.688 158.288 119.916 158.912C120.144 159.524 120.456 160.01 120.852 160.37C121.26 160.718 121.716 160.892 122.22 160.892Z" fill="#DDDDDD"/>
<path d="M115.296 58.504V67H114.18V60.844H112.044V60.076C112.732 60.076 113.276 59.964 113.676 59.74C114.084 59.516 114.356 59.104 114.492 58.504H115.296ZM119.648 62.452C119.272 62.292 118.98 62.06 118.772 61.756C118.572 61.444 118.472 61.08 118.472 60.664C118.472 60.024 118.708 59.504 119.18 59.104C119.652 58.696 120.26 58.492 121.004 58.492C121.74 58.492 122.34 58.692 122.804 59.092C123.276 59.484 123.512 59.992 123.512 60.616C123.512 61.48 123.124 62.092 122.348 62.452C123.348 62.804 123.848 63.496 123.848 64.528C123.848 65.336 123.588 65.98 123.068 66.46C122.548 66.932 121.848 67.168 120.968 67.168C120.12 67.168 119.436 66.936 118.916 66.472C118.404 66 118.148 65.376 118.148 64.6C118.148 64.088 118.276 63.648 118.532 63.28C118.796 62.904 119.168 62.628 119.648 62.452ZM122.072 59.764C121.808 59.524 121.452 59.404 121.004 59.404C120.556 59.404 120.196 59.528 119.924 59.776C119.652 60.016 119.516 60.336 119.516 60.736C119.516 61.136 119.652 61.46 119.924 61.708C120.196 61.948 120.556 62.068 121.004 62.068C121.444 62.068 121.796 61.948 122.06 61.708C122.332 61.46 122.468 61.136 122.468 60.736C122.468 60.328 122.336 60.004 122.072 59.764ZM120.968 62.896C120.456 62.896 120.036 63.056 119.708 63.376C119.38 63.688 119.216 64.088 119.216 64.576C119.216 65.08 119.38 65.496 119.708 65.824C120.044 66.144 120.472 66.304 120.992 66.304C121.52 66.304 121.948 66.144 122.276 65.824C122.612 65.504 122.78 65.092 122.78 64.588C122.78 64.084 122.612 63.676 122.276 63.364C121.94 63.052 121.504 62.896 120.968 62.896ZM128.636 58.456H130.196L132.944 65.692L135.596 58.456H137.168V67H136.1V59.872L133.424 67H132.44L129.716 59.872V67H128.636V58.456ZM139.905 58.456V61.66C140.353 60.98 141.037 60.64 141.957 60.64C142.805 60.64 143.481 60.936 143.985 61.528C144.497 62.112 144.753 62.896 144.753 63.88C144.753 64.88 144.493 65.68 143.973 66.28C143.453 66.88 142.761 67.18 141.897 67.18C140.913 67.18 140.229 66.82 139.845 66.1V67H138.885V58.456H139.905ZM141.801 61.504C141.145 61.504 140.657 61.74 140.337 62.212C140.025 62.684 139.869 63.264 139.869 63.952C139.869 64.68 140.041 65.26 140.385 65.692C140.737 66.116 141.209 66.328 141.801 66.328C142.369 66.328 142.825 66.108 143.169 65.668C143.521 65.22 143.697 64.628 143.697 63.892C143.697 63.164 143.525 62.584 143.181 62.152C142.837 61.72 142.377 61.504 141.801 61.504Z" fill="#757575"/>
<rect x="0.25" y="0.25" width="188.5" height="259.5" stroke="#757575" stroke-width="0.5"/>
<path d="M32.996 54.456H36.512C37.384 54.456 38.076 54.656 38.588 55.056C39.1 55.448 39.356 56.068 39.356 56.916C39.356 58.636 38.384 59.496 36.44 59.496H34.124V63H32.996V54.456ZM34.124 55.428V58.548H36.296C36.904 58.548 37.376 58.436 37.712 58.212C38.056 57.98 38.228 57.572 38.228 56.988C38.228 56.66 38.172 56.388 38.06 56.172C37.956 55.956 37.8 55.796 37.592 55.692C37.384 55.588 37.168 55.52 36.944 55.488C36.72 55.448 36.452 55.428 36.14 55.428H34.124ZM40.7293 54.456H43.5133C44.9613 54.456 46.0293 54.792 46.7173 55.464C47.4053 56.136 47.7493 57.2 47.7493 58.656C47.7493 60.088 47.4293 61.172 46.7893 61.908C46.1493 62.636 45.1253 63 43.7173 63H40.7293V54.456ZM41.8573 55.428V62.028H43.5733C44.6453 62.028 45.4213 61.768 45.9013 61.248C46.3893 60.72 46.6333 59.9 46.6333 58.788C46.6333 57.62 46.3973 56.768 45.9253 56.232C45.4533 55.696 44.6533 55.428 43.5253 55.428H41.8573ZM54.8065 54.456V55.44H50.3185V58.104H54.2785V59.052H50.3185V63H49.1905V54.456H54.8065Z" fill="#A68E52"/>
<path d="M24.7835 66.7916C25.1083 69.3907 25.3694 72.0111 25.4738 74.6155L25.5086 75.3528C25.5492 76.2652 25.5956 77.2518 25.584 78.2437L24.0294 78.2437C23.0316 78.2437 22.1151 78.7635 21.6858 79.5698C20.4096 81.9939 21.1985 83.983 21.7786 84.9484C22.0165 85.3462 22.3877 85.6486 22.8228 85.8236L22.8228 85.8289C23.0084 85.9032 23.2115 85.9562 23.4145 85.9775L23.4203 85.9775C23.5189 85.9934 23.6175 85.9987 23.7161 85.9987L63.8177 85.9987C63.8235 85.9987 63.8235 85.9987 63.8293 85.9987C64.0207 86.0093 64.5196 85.9668 65.0533 85.4841C66.8458 83.8557 68.3424 78.1005 65.2679 59.9489C65.2447 59.8163 65.2273 59.689 65.2099 59.5564L65.1867 59.4397C65.1171 58.9623 65.0475 58.4902 64.9779 58.0128C64.8793 57.2968 64.7806 56.5754 64.6936 55.8593C64.5776 54.9575 64.4732 54.0611 64.3746 53.1647C64.2644 52.1462 64.1599 51.1278 64.0729 50.1093C63.9801 48.9795 63.9047 47.9293 63.8467 46.9002C63.7887 45.7545 63.7539 44.7095 63.7423 43.707C63.7307 42.6037 63.7539 41.6277 63.8061 40.7206C63.8583 39.7924 63.9395 39.0126 64.0613 38.2965C64.0787 38.2965 64.0961 38.3018 64.1135 38.3018C64.9837 38.4291 66.2251 38.3496 67.0836 37.7396C67.6115 37.3683 67.9247 36.8431 67.9885 36.2225C68.0407 35.7398 67.9131 35.2412 67.6347 34.8169C67.4839 34.5994 67.2286 34.297 66.8226 34.1326C66.6079 34.0424 66.3701 34 66.1264 34C66.0452 34 65.9582 34.0106 65.8712 34.0265C65.8654 34.0265 65.8596 34.0212 65.8538 34.0212L25.2302 34.0212C25.1663 34.0212 25.1141 34.0318 25.0619 34.053C24.7371 34.1167 24.4238 34.2599 24.157 34.4721C23.5769 34.923 23.2869 35.5754 23.0954 36.0899C22.5559 37.5698 22.4051 39.1346 22.3239 40.6039C22.1267 44.2003 22.3239 47.7913 22.6952 51.3559C22.6952 51.3559 24.7835 65.0571 24.7835 66.7916ZM23.7161 85.203C23.6001 85.203 23.4899 85.1871 23.3855 85.1659C23.0316 85.081 22.7184 84.8688 22.5385 84.5665C21.9295 83.5481 21.419 81.9143 22.4747 79.9146C22.7532 79.3841 23.3623 79.0394 24.0294 79.0394L62.878 79.0393C62.7561 79.2515 62.6227 79.5167 62.4777 79.835C62.2051 80.4291 62.0484 81.0709 62.002 81.734C61.9266 82.954 62.2689 84.1581 62.9708 85.203L23.7161 85.203ZM63.3014 80.1002C63.6321 79.3629 63.8177 79.1242 63.8989 79.0447C64.1135 79.0553 64.2064 79.1348 64.2644 79.2091C64.624 79.6812 64.3572 81.0338 64.0149 81.9886L62.8664 81.9992C62.8664 81.9302 62.8664 81.856 62.8722 81.7817C62.907 81.2035 63.0462 80.6572 63.3014 80.1002ZM65.3781 35.0609C65.5174 34.9548 65.6972 34.8646 65.8944 34.8222C65.9176 34.8222 65.9466 34.8222 65.964 34.8116C66.1322 34.785 66.3121 34.7956 66.4687 34.8593C66.6253 34.923 66.7703 35.0556 66.8864 35.2306C67.072 35.5064 67.1532 35.8353 67.1242 36.1483C67.0778 36.5461 66.8864 36.875 66.5499 37.1084C66.1438 37.4001 65.5116 37.5592 64.8444 37.5592C64.6472 37.5592 64.45 37.5433 64.247 37.5168L64.2122 37.5115C64.3282 36.997 64.4558 36.5726 64.6182 36.1801C64.7632 35.8459 64.9953 35.3632 65.3781 35.0609ZM23.194 40.6411C23.2695 39.2301 23.4087 37.729 23.9192 36.3392C24.0758 35.9255 24.302 35.4004 24.7197 35.0768C24.8763 34.9548 25.0851 34.8593 25.2998 34.8169L64.4384 34.8169C64.4384 34.8222 64.4326 34.8222 64.4268 34.8275C64.1251 35.1882 63.9337 35.5913 63.8061 35.899C63.5567 36.4877 63.3826 37.1402 63.226 38.0207C63.0868 38.8057 62.9998 39.6544 62.936 40.6782C62.8837 41.6011 62.8605 42.5931 62.8721 43.7123C62.8837 44.7254 62.9186 45.781 62.9824 46.9373C63.0346 47.9717 63.11 49.0326 63.2086 50.173C63.2956 51.1967 63.3942 52.2205 63.5044 53.2389C63.6031 54.146 63.7133 55.0477 63.8293 55.9495C63.9163 56.6708 64.0149 57.3922 64.1193 58.1136C64.1832 58.591 64.2528 59.0684 64.3282 59.5511L64.3456 59.6678C64.3688 59.8004 64.3862 59.933 64.4094 60.0709C67.6521 79.2462 65.5638 83.7868 64.5138 84.8476C64.305 85.0598 64.1309 85.1447 64.0149 85.1818C63.4232 84.4763 63.052 83.6541 62.9186 82.7948L64.6298 82.7842L64.7342 82.5243C64.8445 82.2485 65.79 79.8138 64.9721 78.7476C64.798 78.5301 64.479 78.2649 63.9047 78.249C63.8815 78.2437 63.8583 78.2437 63.8351 78.2437L26.4484 78.2437C26.46 77.2306 26.4193 76.2386 26.3787 75.3157L26.3439 74.5837C26.2395 71.9845 25.9843 69.3801 25.6594 66.7916L23.5711 51.3559C23.194 47.802 22.9968 44.2162 23.194 40.6411Z" fill="#A68E52"/>
<line x1="21" y1="189.75" x2="167" y2="189.75" stroke="#757575" stroke-width="0.5"/>
<path d="M162.713 229.866L165.062 227.548L162.713 227.548L160.364 227.548L162.713 229.866Z" fill="#A68E52"/>
<path d="M162.713 220L162.713 229.866M162.713 229.866L165.062 227.548L160.364 227.548L162.713 229.866Z" stroke="#A68E52" stroke-width="0.469793"/>
<line x1="158" y1="232.705" x2="167.455" y2="232.705" stroke="#A68E52" stroke-width="0.590907"/>
<path d="M26.844 229.076V230H21.3C21.324 229.528 21.396 229.116 21.516 228.764C21.636 228.412 21.82 228.096 22.068 227.816C22.324 227.528 22.572 227.292 22.812 227.108C23.052 226.924 23.392 226.696 23.832 226.424C24.52 225.992 24.972 225.668 25.188 225.452C25.636 225.012 25.86 224.524 25.86 223.988C25.86 223.516 25.708 223.132 25.404 222.836C25.1 222.532 24.704 222.38 24.216 222.38C23.632 222.38 23.212 222.584 22.956 222.992C22.708 223.392 22.576 223.9 22.56 224.516H21.528V224.288C21.528 223.448 21.776 222.772 22.272 222.26C22.776 221.748 23.44 221.492 24.264 221.492C25.072 221.492 25.716 221.716 26.196 222.164C26.676 222.612 26.916 223.212 26.916 223.964C26.916 224.284 26.86 224.588 26.748 224.876C26.644 225.156 26.524 225.392 26.388 225.584C26.26 225.776 26.06 225.98 25.788 226.196C25.524 226.412 25.304 226.58 25.128 226.7C24.952 226.812 24.7 226.968 24.372 227.168C23.716 227.56 23.28 227.864 23.064 228.08C22.76 228.376 22.564 228.708 22.476 229.076H26.844ZM31.964 221.504V230H30.848V223.844H28.712V223.076C29.4 223.076 29.944 222.964 30.344 222.74C30.752 222.516 31.024 222.104 31.16 221.504H31.964ZM36.6639 228.668V230H35.3319V228.668H36.6639ZM40.9998 221.492C41.5118 221.492 41.9478 221.588 42.3078 221.78C42.6758 221.964 42.9558 222.192 43.1478 222.464C43.3398 222.736 43.4918 223.092 43.6038 223.532C43.7158 223.964 43.7838 224.356 43.8078 224.708C43.8318 225.052 43.8438 225.468 43.8438 225.956C43.8438 226.404 43.8238 226.808 43.7838 227.168C43.7518 227.528 43.6758 227.904 43.5558 228.296C43.4438 228.688 43.2878 229.016 43.0878 229.28C42.8878 229.536 42.6158 229.748 42.2718 229.916C41.9278 230.084 41.5198 230.168 41.0478 230.168C40.5518 230.168 40.1198 230.084 39.7518 229.916C39.3918 229.74 39.1118 229.524 38.9118 229.268C38.7118 229.012 38.5518 228.688 38.4318 228.296C38.3198 227.896 38.2478 227.52 38.2158 227.168C38.1838 226.808 38.1678 226.396 38.1678 225.932C38.1678 225.532 38.1758 225.184 38.1918 224.888C38.2158 224.592 38.2558 224.26 38.3118 223.892C38.3758 223.516 38.4718 223.2 38.5998 222.944C38.7278 222.68 38.8918 222.432 39.0918 222.2C39.2918 221.968 39.5518 221.792 39.8718 221.672C40.1998 221.552 40.5758 221.492 40.9998 221.492ZM41.6598 222.548C41.4678 222.452 41.2478 222.404 40.9998 222.404C40.7518 222.404 40.5318 222.452 40.3398 222.548C40.1478 222.636 39.9918 222.74 39.8718 222.86C39.7518 222.98 39.6478 223.16 39.5598 223.4C39.4718 223.632 39.4078 223.828 39.3678 223.988C39.3358 224.148 39.3078 224.38 39.2838 224.684C39.2598 224.98 39.2478 225.192 39.2478 225.32C39.2478 225.44 39.2478 225.644 39.2478 225.932C39.2478 226.212 39.2518 226.444 39.2598 226.628C39.2678 226.812 39.2878 227.052 39.3198 227.348C39.3518 227.644 39.4078 227.892 39.4878 228.092C39.5678 228.284 39.6678 228.48 39.7878 228.68C39.9078 228.872 40.0718 229.02 40.2798 229.124C40.4958 229.22 40.7438 229.268 41.0238 229.268C41.2638 229.268 41.4758 229.224 41.6598 229.136C41.8518 229.048 42.0078 228.944 42.1278 228.824C42.2478 228.704 42.3478 228.536 42.4278 228.32C42.5158 228.096 42.5798 227.904 42.6198 227.744C42.6598 227.576 42.6878 227.356 42.7038 227.084C42.7278 226.804 42.7398 226.6 42.7398 226.472C42.7478 226.336 42.7518 226.14 42.7518 225.884C42.7518 225.604 42.7518 225.404 42.7518 225.284C42.7518 225.164 42.7398 224.956 42.7158 224.66C42.6918 224.364 42.6598 224.136 42.6198 223.976C42.5878 223.816 42.5278 223.62 42.4398 223.388C42.3518 223.156 42.2478 222.98 42.1278 222.86C42.0078 222.74 41.8518 222.636 41.6598 222.548ZM49.9958 221.648V222.548H46.5518L46.0478 225.08C46.4638 224.632 47.0358 224.408 47.7638 224.408C48.5638 224.408 49.2118 224.668 49.7078 225.188C50.2038 225.7 50.4518 226.368 50.4518 227.192C50.4518 228.056 50.1798 228.768 49.6358 229.328C49.0918 229.888 48.3838 230.168 47.5117 230.168C46.7038 230.168 46.0478 229.944 45.5438 229.496C45.0478 229.048 44.7878 228.452 44.7638 227.708H45.7958C45.8358 228.18 46.0158 228.564 46.3358 228.86C46.6558 229.156 47.0518 229.304 47.5238 229.304C48.0518 229.304 48.4918 229.112 48.8438 228.728C49.1958 228.344 49.3718 227.868 49.3718 227.3C49.3718 226.708 49.1998 226.228 48.8558 225.86C48.5118 225.484 48.0638 225.296 47.5117 225.296C46.8078 225.296 46.2638 225.572 45.8798 226.124L45.0038 226.064L45.7958 221.648H49.9958ZM53.3397 228.668V230H52.0077V228.668H53.3397ZM60.1956 229.076V230H54.6516C54.6756 229.528 54.7476 229.116 54.8676 228.764C54.9876 228.412 55.1716 228.096 55.4196 227.816C55.6756 227.528 55.9236 227.292 56.1636 227.108C56.4036 226.924 56.7436 226.696 57.1836 226.424C57.8716 225.992 58.3236 225.668 58.5396 225.452C58.9876 225.012 59.2116 224.524 59.2116 223.988C59.2116 223.516 59.0596 223.132 58.7556 222.836C58.4516 222.532 58.0556 222.38 57.5676 222.38C56.9836 222.38 56.5636 222.584 56.3076 222.992C56.0596 223.392 55.9276 223.9 55.9116 224.516H54.8796V224.288C54.8796 223.448 55.1276 222.772 55.6236 222.26C56.1276 221.748 56.7916 221.492 57.6156 221.492C58.4236 221.492 59.0676 221.716 59.5476 222.164C60.0276 222.612 60.2676 223.212 60.2676 223.964C60.2676 224.284 60.2116 224.588 60.0996 224.876C59.9956 225.156 59.8756 225.392 59.7396 225.584C59.6116 225.776 59.4116 225.98 59.1396 226.196C58.8756 226.412 58.6556 226.58 58.4796 226.7C58.3036 226.812 58.0516 226.968 57.7236 227.168C57.0676 227.56 56.6316 227.864 56.4156 228.08C56.1116 228.376 55.9156 228.708 55.8276 229.076H60.1956ZM64.3435 221.492C64.8555 221.492 65.2915 221.588 65.6515 221.78C66.0195 221.964 66.2995 222.192 66.4915 222.464C66.6835 222.736 66.8355 223.092 66.9475 223.532C67.0595 223.964 67.1275 224.356 67.1515 224.708C67.1755 225.052 67.1875 225.468 67.1875 225.956C67.1875 226.404 67.1675 226.808 67.1275 227.168C67.0955 227.528 67.0195 227.904 66.8995 228.296C66.7875 228.688 66.6315 229.016 66.4315 229.28C66.2315 229.536 65.9595 229.748 65.6155 229.916C65.2715 230.084 64.8635 230.168 64.3915 230.168C63.8955 230.168 63.4635 230.084 63.0955 229.916C62.7355 229.74 62.4555 229.524 62.2555 229.268C62.0555 229.012 61.8955 228.688 61.7755 228.296C61.6635 227.896 61.5915 227.52 61.5595 227.168C61.5275 226.808 61.5115 226.396 61.5115 225.932C61.5115 225.532 61.5195 225.184 61.5355 224.888C61.5595 224.592 61.5995 224.26 61.6555 223.892C61.7195 223.516 61.8155 223.2 61.9435 222.944C62.0715 222.68 62.2355 222.432 62.4355 222.2C62.6355 221.968 62.8955 221.792 63.2155 221.672C63.5435 221.552 63.9195 221.492 64.3435 221.492ZM65.0035 222.548C64.8115 222.452 64.5915 222.404 64.3435 222.404C64.0955 222.404 63.8755 222.452 63.6835 222.548C63.4915 222.636 63.3355 222.74 63.2155 222.86C63.0955 222.98 62.9915 223.16 62.9035 223.4C62.8155 223.632 62.7515 223.828 62.7115 223.988C62.6795 224.148 62.6515 224.38 62.6275 224.684C62.6035 224.98 62.5915 225.192 62.5915 225.32C62.5915 225.44 62.5915 225.644 62.5915 225.932C62.5915 226.212 62.5955 226.444 62.6035 226.628C62.6115 226.812 62.6315 227.052 62.6635 227.348C62.6955 227.644 62.7515 227.892 62.8315 228.092C62.9115 228.284 63.0115 228.48 63.1315 228.68C63.2515 228.872 63.4155 229.02 63.6235 229.124C63.8395 229.22 64.0875 229.268 64.3675 229.268C64.6075 229.268 64.8195 229.224 65.0035 229.136C65.1955 229.048 65.3515 228.944 65.4715 228.824C65.5915 228.704 65.6915 228.536 65.7715 228.32C65.8595 228.096 65.9235 227.904 65.9635 227.744C66.0035 227.576 66.0315 227.356 66.0475 227.084C66.0715 226.804 66.0835 226.6 66.0835 226.472C66.0915 226.336 66.0955 226.14 66.0955 225.884C66.0955 225.604 66.0955 225.404 66.0955 225.284C66.0955 225.164 66.0835 224.956 66.0595 224.66C66.0355 224.364 66.0035 224.136 65.9635 223.976C65.9315 223.816 65.8715 223.62 65.7835 223.388C65.6955 223.156 65.5915 222.98 65.4715 222.86C65.3515 222.74 65.1955 222.636 65.0035 222.548ZM71.9835 221.504V230H70.8675V223.844H68.7315V223.076C69.4195 223.076 69.9635 222.964 70.3635 222.74C70.7715 222.516 71.0435 222.104 71.1795 221.504H71.9835ZM74.9555 227.948H75.9635C76.0195 228.364 76.1835 228.692 76.4555 228.932C76.7355 229.164 77.0915 229.28 77.5235 229.28C78.6355 229.28 79.2675 228.356 79.4195 226.508C79.4355 226.34 79.4435 226.152 79.4435 225.944C78.9635 226.72 78.2715 227.108 77.3675 227.108C76.5915 227.108 75.9635 226.856 75.4835 226.352C75.0035 225.84 74.7635 225.172 74.7635 224.348C74.7635 223.5 75.0235 222.812 75.5435 222.284C76.0635 221.756 76.7395 221.492 77.5715 221.492C79.5235 221.492 80.4995 222.876 80.4995 225.644C80.4995 226.068 80.4715 226.476 80.4155 226.868C80.3675 227.252 80.2755 227.652 80.1395 228.068C80.0035 228.476 79.8275 228.832 79.6115 229.136C79.3955 229.44 79.1035 229.688 78.7355 229.88C78.3755 230.072 77.9595 230.168 77.4875 230.168C76.7675 230.168 76.1755 229.972 75.7115 229.58C75.2555 229.188 75.0035 228.644 74.9555 227.948ZM77.5235 222.404C77.0195 222.404 76.6115 222.58 76.2995 222.932C75.9955 223.276 75.8435 223.736 75.8435 224.312C75.8435 224.856 75.9875 225.308 76.2755 225.668C76.5715 226.02 76.9875 226.196 77.5235 226.196C78.0435 226.196 78.4635 226.028 78.7835 225.692C79.1035 225.348 79.2635 224.896 79.2635 224.336C79.2635 223.752 79.1035 223.284 78.7835 222.932C78.4635 222.58 78.0435 222.404 77.5235 222.404Z" fill="#757575"/>
</svg>
