<svg width="49" height="16" viewBox="0 0 49 16" fill="none" xmlns="http://www.w3.org/2000/svg">
<path d="M37.7273 0C35.1209 0 33 2.1209 33 4.72727V11.2727C33 13.8791 35.1209 16 37.7273 16H44.2727C46.8791 16 49 13.8791 49 11.2727V4.72727C49 2.1209 46.8791 0 44.2727 0H37.7273ZM37.7273 0.727273H44.2727C46.486 0.727273 48.2727 2.51401 48.2727 4.72727V11.2727C48.2727 13.486 46.486 15.2727 44.2727 15.2727H37.7273C35.514 15.2727 33.7273 13.486 33.7273 11.2727V4.72727C33.7273 2.51401 35.514 0.727273 37.7273 0.727273ZM45.3636 2.90909C45.1708 2.90909 44.9858 2.98571 44.8494 3.1221C44.713 3.25849 44.6364 3.44348 44.6364 3.63636C44.6364 3.82925 44.713 4.01423 44.8494 4.15062C44.9858 4.28701 45.1708 4.36364 45.3636 4.36364C45.5565 4.36364 45.7415 4.28701 45.8779 4.15062C46.0143 4.01423 46.0909 3.82925 46.0909 3.63636C46.0909 3.44348 46.0143 3.25849 45.8779 3.1221C45.7415 2.98571 45.5565 2.90909 45.3636 2.90909ZM41 4C38.7952 4 37 5.79517 37 8C37 10.2048 38.7952 12 41 12C43.2048 12 45 10.2048 45 8C45 5.79517 43.2048 4 41 4ZM41 4.72727C42.8118 4.72727 44.2727 6.18822 44.2727 8C44.2727 9.81178 42.8118 11.2727 41 11.2727C39.1882 11.2727 37.7273 9.81178 37.7273 8C37.7273 6.18822 39.1882 4.72727 41 4.72727Z" fill="#B3AEAE"/>
<path d="M1.90476 0C0.857327 0 0 0.857054 0 1.90416V14.0907C0 15.1378 0.857327 15.9949 1.90476 15.9949H8.31696C8.3581 16.0017 8.40008 16.0017 8.44122 15.9949H10.6027C10.6438 16.0017 10.6858 16.0017 10.7269 15.9949H14.0952C15.1427 15.9949 16 15.1378 16 14.0907V1.90416C16 0.857054 15.1427 0 14.0952 0H1.90476ZM1.90476 0.761662H14.0952C14.7309 0.761662 15.2381 1.26874 15.2381 1.90416V14.0907C15.2381 14.7262 14.7309 15.2332 14.0952 15.2332H11.0476V9.90161H12.503L13.0365 7.23579H11.0476V6.47413C11.0476 6.26182 11.0678 6.24522 11.1391 6.19892C11.2104 6.15261 11.4308 6.0933 11.8095 6.0933H12.9524V3.94889L12.7351 3.8455C12.7351 3.8455 11.8601 3.42748 10.6667 3.42748C9.80952 3.42748 9.10537 3.76888 8.65476 4.33195C8.20416 4.89503 8 5.64899 8 6.47413V7.23579H6.85714V9.90161H8V15.2332H1.90476C1.26915 15.2332 0.761905 14.7262 0.761905 14.0907V1.90416C0.761905 1.26874 1.26915 0.761662 1.90476 0.761662ZM10.6667 4.18914C11.4587 4.18914 11.9571 4.36373 12.1905 4.45617V5.33163H11.8095C11.3711 5.33163 11.0198 5.36789 10.724 5.55998C10.4281 5.75208 10.2857 6.11671 10.2857 6.47413V7.99745H12.1064L11.878 9.13994H10.2857V15.2332H8.7619V9.13994H7.61905V7.99745H8.7619V6.47413C8.7619 5.77594 8.9387 5.19699 9.25 4.80799C9.5613 4.41899 10 4.18914 10.6667 4.18914Z" fill="#B3AEAE"/>
</svg>
