<svg width="227" height="26" viewBox="0 0 227 26" fill="none" xmlns="http://www.w3.org/2000/svg">
<path d="M9.27374 16.9999C9.27371 16.9999 9.27371 16.9999 9.27368 16.9999C8.88953 16.9999 8.08521 16.9361 7.01449 16.5083C5.70558 15.9855 4.41304 15.0915 3.1728 13.8512C0.701063 11.3795 -0.206918 9.54136 0.0387565 7.50652C0.154373 6.48561 0.592239 5.97508 1.19812 5.36549C1.43403 5.1296 1.74458 5 2.07322 5C2.38857 5 2.68296 5.12075 2.90223 5.34L4.67227 7.11004C5.13474 7.57416 5.12398 8.33819 4.64864 8.81353L4.1422 9.31929C4.00469 9.45662 3.97749 9.66991 4.07615 9.83801C4.47392 10.5159 4.83498 11.0507 5.4051 11.6218C5.90764 12.1243 6.42411 12.5106 7.18756 12.9546C7.25263 12.9925 7.32675 13.0125 7.40187 13.0125C7.51594 13.0125 7.62317 12.9681 7.70374 12.8877L8.21315 12.379C8.44801 12.1441 8.75847 12.0147 9.08723 12.0147C9.40226 12.0147 9.69665 12.1352 9.91615 12.3539L11.6865 14.1243C12.1485 14.5879 12.1379 15.3523 11.6632 15.8287C11.6624 15.8295 11.6615 15.8304 11.6607 15.8312C11.0259 16.4523 10.5339 16.8685 9.51953 16.989C9.51847 16.9892 9.51739 16.9893 9.51633 16.9894C9.48691 16.9926 9.40448 16.9999 9.27374 16.9999ZM2.07322 5.57081C1.89704 5.57081 1.72983 5.64101 1.60237 5.7685C0.971939 6.40273 0.693928 6.79384 0.605681 7.57285C0.383409 9.41393 1.24413 11.1154 3.57641 13.4476C6.34285 16.2141 8.63661 16.4291 9.27371 16.4291C9.27371 16.4291 9.27374 16.4291 9.27377 16.4291C9.37886 16.4291 9.43982 16.4235 9.45397 16.422C10.2608 16.3257 10.6414 16.0297 11.26 15.4246C11.5122 15.1704 11.5224 14.7683 11.2825 14.5275L9.51282 12.7579C9.40143 12.6468 9.25014 12.5855 9.08717 12.5855C8.91091 12.5855 8.74378 12.6555 8.6166 12.7827L8.10704 13.2916C7.91868 13.4797 7.66824 13.5833 7.40184 13.5833C7.226 13.5833 7.05265 13.5365 6.9005 13.448C6.33729 13.1204 5.67118 12.6951 5.00126 12.0252C4.3881 11.411 4.00432 10.8435 3.58378 10.1269C3.3536 9.73455 3.41733 9.23635 3.73884 8.91536L4.24514 8.40977C4.49815 8.15673 4.5086 7.75451 4.26829 7.51332L2.49859 5.74365C2.38717 5.6322 2.2361 5.57081 2.07322 5.57081Z" fill="#A68E52"/>
</svg>
