<svg width="110" height="26" viewBox="0 0 110 26" fill="none" xmlns="http://www.w3.org/2000/svg">
<path d="M8.526 13.088C8.526 13.4147 8.45133 13.7553 8.302 14.11C8.15267 14.4553 7.93333 14.7913 7.644 15.118C7.35467 15.4447 6.94867 15.7107 6.426 15.916C5.90333 16.1213 5.31067 16.224 4.648 16.224C3.39733 16.224 2.394 15.93 1.638 15.342C0.891333 14.7447 0.518 13.8673 0.518 12.71H1.792C1.82 13.5593 2.10467 14.18 2.646 14.572C3.18733 14.9547 3.892 15.146 4.76 15.146C5.46 15.146 6.04333 14.9547 6.51 14.572C6.97667 14.1893 7.21 13.6853 7.21 13.06C7.21 12.7147 7.14467 12.4207 7.014 12.178C6.88333 11.9353 6.692 11.7533 6.44 11.632C6.188 11.5107 5.922 11.4267 5.642 11.38C5.37133 11.3333 5.054 11.31 4.69 11.31C4.37267 11.31 4.074 11.3193 3.794 11.338V10.246C3.94333 10.2647 4.242 10.274 4.69 10.274C6.13667 10.274 6.86 9.67667 6.86 8.482C6.86 7.418 6.146 6.886 4.718 6.886C3.206 6.886 2.38 7.56267 2.24 8.916H0.966C1.00333 7.88933 1.36733 7.11467 2.058 6.592C2.74867 6.06 3.64933 5.794 4.76 5.794C5.77733 5.794 6.59867 6.018 7.224 6.466C7.85867 6.914 8.176 7.586 8.176 8.482C8.176 8.986 8.01267 9.44333 7.686 9.854C7.35933 10.2553 6.972 10.5213 6.524 10.652V10.694C7.15867 10.8153 7.64867 11.1 7.994 11.548C8.34867 11.996 8.526 12.5093 8.526 13.088ZM16.3721 15.048V15.972C16.1295 16.0653 15.8588 16.112 15.5601 16.112C14.8788 16.112 14.5288 15.7573 14.5101 15.048C13.8288 15.8133 12.9561 16.196 11.8921 16.196C11.1828 16.196 10.6181 16.014 10.1981 15.65C9.78746 15.286 9.58213 14.7867 9.58213 14.152C9.58213 12.864 10.4361 12.1127 12.1441 11.898C13.1521 11.7767 13.7355 11.688 13.8941 11.632C14.2301 11.52 14.4121 11.2867 14.4401 10.932C14.4495 10.876 14.4541 10.8153 14.4541 10.75C14.4541 9.95667 13.9081 9.56 12.8161 9.56C12.2561 9.56 11.8315 9.67667 11.5421 9.91C11.2528 10.134 11.0801 10.5073 11.0241 11.03H9.86213C9.88079 10.2553 10.1561 9.65333 10.6881 9.224C11.2201 8.79467 11.9528 8.58 12.8861 8.58C13.9035 8.58 14.6595 8.81333 15.1541 9.28C15.3128 9.42933 15.4295 9.62533 15.5041 9.868C15.5788 10.1107 15.6208 10.3113 15.6301 10.47C15.6395 10.6193 15.6441 10.848 15.6441 11.156C15.6441 11.52 15.6348 12.0613 15.6161 12.78C15.5975 13.4893 15.5881 14.0213 15.5881 14.376C15.5881 14.6373 15.6208 14.824 15.6861 14.936C15.7608 15.0387 15.8915 15.09 16.0781 15.09C16.1528 15.09 16.2508 15.076 16.3721 15.048ZM14.4541 12.248C14.3701 12.3133 14.2815 12.3693 14.1881 12.416C14.0948 12.4627 13.9735 12.5 13.8241 12.528C13.6841 12.556 13.5861 12.5793 13.5301 12.598C13.4835 12.6073 13.3621 12.626 13.1661 12.654C12.9701 12.6727 12.8675 12.682 12.8581 12.682C12.5688 12.7193 12.3775 12.7473 12.2841 12.766C12.2001 12.7753 12.0321 12.8127 11.7801 12.878C11.5375 12.9433 11.3648 13.018 11.2621 13.102C11.1595 13.186 11.0568 13.312 10.9541 13.48C10.8608 13.6387 10.8141 13.83 10.8141 14.054C10.8141 14.4273 10.9401 14.7213 11.1921 14.936C11.4535 15.1507 11.8081 15.258 12.2561 15.258C12.8255 15.258 13.3341 15.09 13.7821 14.754C14.2301 14.418 14.4541 14.0213 14.4541 13.564V12.248ZM23.9617 16H22.4497L19.8177 12.444L18.6837 13.55V16H17.4937V8.776H18.6837V12.22L21.9877 8.776H23.5837L20.6717 11.618L23.9617 16ZM31.1514 15.048V15.972C30.9088 16.0653 30.6381 16.112 30.3394 16.112C29.6581 16.112 29.3081 15.7573 29.2894 15.048C28.6081 15.8133 27.7354 16.196 26.6714 16.196C25.9621 16.196 25.3974 16.014 24.9774 15.65C24.5668 15.286 24.3614 14.7867 24.3614 14.152C24.3614 12.864 25.2154 12.1127 26.9234 11.898C27.9314 11.7767 28.5148 11.688 28.6734 11.632C29.0094 11.52 29.1914 11.2867 29.2194 10.932C29.2288 10.876 29.2334 10.8153 29.2334 10.75C29.2334 9.95667 28.6874 9.56 27.5954 9.56C27.0354 9.56 26.6108 9.67667 26.3214 9.91C26.0321 10.134 25.8594 10.5073 25.8034 11.03H24.6414C24.6601 10.2553 24.9354 9.65333 25.4674 9.224C25.9994 8.79467 26.7321 8.58 27.6654 8.58C28.6828 8.58 29.4388 8.81333 29.9334 9.28C30.0921 9.42933 30.2088 9.62533 30.2834 9.868C30.3581 10.1107 30.4001 10.3113 30.4094 10.47C30.4188 10.6193 30.4234 10.848 30.4234 11.156C30.4234 11.52 30.4141 12.0613 30.3954 12.78C30.3768 13.4893 30.3674 14.0213 30.3674 14.376C30.3674 14.6373 30.4001 14.824 30.4654 14.936C30.5401 15.0387 30.6708 15.09 30.8574 15.09C30.9321 15.09 31.0301 15.076 31.1514 15.048ZM29.2334 12.248C29.1494 12.3133 29.0608 12.3693 28.9674 12.416C28.8741 12.4627 28.7528 12.5 28.6034 12.528C28.4634 12.556 28.3654 12.5793 28.3094 12.598C28.2628 12.6073 28.1414 12.626 27.9454 12.654C27.7494 12.6727 27.6468 12.682 27.6374 12.682C27.3481 12.7193 27.1568 12.7473 27.0634 12.766C26.9794 12.7753 26.8114 12.8127 26.5594 12.878C26.3168 12.9433 26.1441 13.018 26.0414 13.102C25.9388 13.186 25.8361 13.312 25.7334 13.48C25.6401 13.6387 25.5934 13.83 25.5934 14.054C25.5934 14.4273 25.7194 14.7213 25.9714 14.936C26.2328 15.1507 26.5874 15.258 27.0354 15.258C27.6048 15.258 28.1134 15.09 28.5614 14.754C29.0094 14.418 29.2334 14.0213 29.2334 13.564V12.248ZM31.867 10.862C31.923 10.0407 32.2356 9.45267 32.805 9.098C33.3743 8.74333 34.079 8.566 34.919 8.566C35.7123 8.566 36.361 8.72933 36.865 9.056C37.3783 9.38267 37.635 9.868 37.635 10.512C37.635 10.904 37.5183 11.24 37.285 11.52C37.061 11.8 36.7903 11.9727 36.473 12.038V12.066C36.8556 12.1407 37.1823 12.332 37.453 12.64C37.733 12.9387 37.873 13.3447 37.873 13.858C37.873 14.6047 37.579 15.188 36.991 15.608C36.403 16.0187 35.6983 16.224 34.877 16.224C33.9343 16.224 33.183 16.0093 32.623 15.58C32.0723 15.1413 31.7783 14.53 31.741 13.746H32.945C32.9823 14.25 33.1736 14.628 33.519 14.88C33.8643 15.132 34.3123 15.258 34.863 15.258C35.4136 15.258 35.8476 15.1273 36.165 14.866C36.4823 14.5953 36.641 14.2687 36.641 13.886C36.641 13.102 36.1276 12.71 35.101 12.71H34.107V11.744H34.905C35.3623 11.744 35.731 11.6507 36.011 11.464C36.291 11.268 36.431 10.9693 36.431 10.568C36.431 10.288 36.291 10.0453 36.011 9.84C35.7403 9.63467 35.3716 9.532 34.905 9.532C34.429 9.532 34.0136 9.63933 33.659 9.854C33.3136 10.0687 33.1176 10.4047 33.071 10.862H31.867ZM45.671 15.048V15.972C45.4283 16.0653 45.1576 16.112 44.859 16.112C44.1776 16.112 43.8276 15.7573 43.809 15.048C43.1276 15.8133 42.255 16.196 41.191 16.196C40.4816 16.196 39.917 16.014 39.497 15.65C39.0863 15.286 38.881 14.7867 38.881 14.152C38.881 12.864 39.735 12.1127 41.443 11.898C42.451 11.7767 43.0343 11.688 43.193 11.632C43.529 11.52 43.711 11.2867 43.739 10.932C43.7483 10.876 43.753 10.8153 43.753 10.75C43.753 9.95667 43.207 9.56 42.115 9.56C41.555 9.56 41.1303 9.67667 40.841 9.91C40.5516 10.134 40.379 10.5073 40.323 11.03H39.161C39.1796 10.2553 39.455 9.65333 39.987 9.224C40.519 8.79467 41.2516 8.58 42.185 8.58C43.2023 8.58 43.9583 8.81333 44.453 9.28C44.6116 9.42933 44.7283 9.62533 44.803 9.868C44.8776 10.1107 44.9196 10.3113 44.929 10.47C44.9383 10.6193 44.943 10.848 44.943 11.156C44.943 11.52 44.9336 12.0613 44.915 12.78C44.8963 13.4893 44.887 14.0213 44.887 14.376C44.887 14.6373 44.9196 14.824 44.985 14.936C45.0596 15.0387 45.1903 15.09 45.377 15.09C45.4516 15.09 45.5496 15.076 45.671 15.048ZM43.753 12.248C43.669 12.3133 43.5803 12.3693 43.487 12.416C43.3936 12.4627 43.2723 12.5 43.123 12.528C42.983 12.556 42.885 12.5793 42.829 12.598C42.7823 12.6073 42.661 12.626 42.465 12.654C42.269 12.6727 42.1663 12.682 42.157 12.682C41.8676 12.7193 41.6763 12.7473 41.583 12.766C41.499 12.7753 41.331 12.8127 41.079 12.878C40.8363 12.9433 40.6636 13.018 40.561 13.102C40.4583 13.186 40.3556 13.312 40.253 13.48C40.1596 13.6387 40.113 13.83 40.113 14.054C40.113 14.4273 40.239 14.7213 40.491 14.936C40.7523 15.1507 41.107 15.258 41.555 15.258C42.1243 15.258 42.633 15.09 43.081 14.754C43.529 14.418 43.753 14.0213 43.753 13.564V12.248ZM52.3225 9.826H49.7325V16H48.5425V9.826H45.9525V8.776H52.3225V9.826ZM58.705 12.136C59.1343 12.528 59.349 13.0647 59.349 13.746C59.349 14.4273 59.139 14.9733 58.719 15.384C58.3083 15.7947 57.753 16 57.053 16H53.231V8.776H54.421V11.534H56.997C57.7063 11.534 58.2756 11.7347 58.705 12.136ZM56.619 12.556H54.421V14.95H56.619C57.1043 14.95 57.473 14.8473 57.725 14.642C57.9863 14.4273 58.117 14.1287 58.117 13.746C58.117 12.9527 57.6176 12.556 56.619 12.556ZM64.0232 10.862C64.0792 10.0407 64.3919 9.45267 64.9612 9.098C65.5305 8.74333 66.2352 8.566 67.0752 8.566C67.8685 8.566 68.5172 8.72933 69.0212 9.056C69.5345 9.38267 69.7912 9.868 69.7912 10.512C69.7912 10.904 69.6745 11.24 69.4412 11.52C69.2172 11.8 68.9465 11.9727 68.6292 12.038V12.066C69.0119 12.1407 69.3385 12.332 69.6092 12.64C69.8892 12.9387 70.0292 13.3447 70.0292 13.858C70.0292 14.6047 69.7352 15.188 69.1472 15.608C68.5592 16.0187 67.8545 16.224 67.0332 16.224C66.0905 16.224 65.3392 16.0093 64.7792 15.58C64.2285 15.1413 63.9345 14.53 63.8972 13.746H65.1012C65.1385 14.25 65.3299 14.628 65.6752 14.88C66.0205 15.132 66.4685 15.258 67.0192 15.258C67.5699 15.258 68.0039 15.1273 68.3212 14.866C68.6385 14.5953 68.7972 14.2687 68.7972 13.886C68.7972 13.102 68.2839 12.71 67.2572 12.71H66.2632V11.744H67.0612C67.5185 11.744 67.8872 11.6507 68.1672 11.464C68.4472 11.268 68.5872 10.9693 68.5872 10.568C68.5872 10.288 68.4472 10.0453 68.1672 9.84C67.8965 9.63467 67.5279 9.532 67.0612 9.532C66.5852 9.532 66.1699 9.63933 65.8152 9.854C65.4699 10.0687 65.2739 10.4047 65.2272 10.862H64.0232ZM71.4012 16V8.776H74.7472C75.2232 8.776 75.6292 8.818 75.9652 8.902C76.3012 8.97667 76.5952 9.14933 76.8472 9.42C77.0992 9.69067 77.2252 10.0593 77.2252 10.526C77.2252 11.2353 76.8705 11.7533 76.1612 12.08V12.094C76.5905 12.178 76.9265 12.3787 77.1692 12.696C77.4119 13.004 77.5332 13.396 77.5332 13.872C77.5332 14.488 77.3279 14.9967 76.9172 15.398C76.5065 15.7993 75.9792 16 75.3352 16H71.4012ZM74.6212 11.688C75.1159 11.688 75.4659 11.6087 75.6712 11.45C75.8859 11.282 75.9932 11.0393 75.9932 10.722C75.9932 10.4047 75.8905 10.1713 75.6852 10.022C75.4799 9.87267 75.1252 9.798 74.6212 9.798H72.5632V11.688H74.6212ZM72.5632 12.696V14.978H75.1112C75.4845 14.978 75.7739 14.866 75.9792 14.642C76.1939 14.418 76.3012 14.1287 76.3012 13.774C76.3012 13.0553 75.8345 12.696 74.9012 12.696H72.5632ZM79.5227 9.602C80.1574 8.91133 81.0207 8.566 82.1127 8.566C83.2047 8.566 84.0541 8.89733 84.6607 9.56C85.2674 10.2227 85.5707 11.1513 85.5707 12.346C85.5707 13.5687 85.2674 14.5207 84.6607 15.202C84.0541 15.8833 83.2001 16.224 82.0987 16.224C80.9974 16.224 80.1341 15.888 79.5087 15.216C78.8834 14.544 78.5707 13.6107 78.5707 12.416C78.5707 11.2307 78.8881 10.2927 79.5227 9.602ZM83.7367 10.33C83.3354 9.81667 82.7847 9.56 82.0847 9.56C81.3847 9.56 80.8294 9.81667 80.4187 10.33C80.0081 10.8433 79.8027 11.5293 79.8027 12.388C79.8027 13.2747 80.0034 13.97 80.4047 14.474C80.8154 14.9687 81.3847 15.216 82.1127 15.216C82.8127 15.216 83.3587 14.964 83.7507 14.46C84.1521 13.956 84.3527 13.2607 84.3527 12.374C84.3527 11.5153 84.1474 10.834 83.7367 10.33ZM88.1778 16H86.9878V8.776H88.1778V11.646H91.7898V8.776H92.9798V16H91.7898V12.696H88.1778V16ZM95.3411 9.602C95.9758 8.91133 96.8391 8.566 97.9311 8.566C99.0231 8.566 99.8724 8.89733 100.479 9.56C101.086 10.2227 101.389 11.1513 101.389 12.346C101.389 13.5687 101.086 14.5207 100.479 15.202C99.8724 15.8833 99.0184 16.224 97.9171 16.224C96.8158 16.224 95.9524 15.888 95.3271 15.216C94.7018 14.544 94.3891 13.6107 94.3891 12.416C94.3891 11.2307 94.7064 10.2927 95.3411 9.602ZM99.5551 10.33C99.1538 9.81667 98.6031 9.56 97.9031 9.56C97.2031 9.56 96.6478 9.81667 96.2371 10.33C95.8264 10.8433 95.6211 11.5293 95.6211 12.388C95.6211 13.2747 95.8218 13.97 96.2231 14.474C96.6338 14.9687 97.2031 15.216 97.9311 15.216C98.6311 15.216 99.1771 14.964 99.5691 14.46C99.9704 13.956 100.171 13.2607 100.171 12.374C100.171 11.5153 99.9658 10.834 99.5551 10.33ZM109.274 16H107.762L105.13 12.444L103.996 13.55V16H102.806V8.776H103.996V12.22L107.3 8.776H108.896L105.984 11.618L109.274 16Z" fill="#A68E52"/>
<line y1="25.5" x2="110" y2="25.5" stroke="#A68E52"/>
</svg>
