<svg width="205" height="9" viewBox="0 0 205 9" fill="none" xmlns="http://www.w3.org/2000/svg">
<circle cx="4" cy="4" r="4" fill="#757575"/>
<circle opacity="0.2" cx="38" cy="4" r="4" fill="#DDDDDD"/>
<path d="M204.347 4.41598L200.977 0.999922L200.977 4.41598L200.977 7.83203L204.347 4.41598Z" fill="#DDDDDD"/>
<path d="M154 4.41598C159.603 4.41598 204.347 4.41598 204.347 4.41598M204.347 4.41598L200.977 0.999922L200.977 7.83203L204.347 4.41598Z" stroke="#DDDDDD" stroke-width="0.683211"/>
<path d="M79 4.41605L82.3705 7.83211L82.3705 4.41605L82.3705 1L79 4.41605Z" fill="#DDDDDD"/>
<path d="M129.347 4.41606C123.744 4.41606 79 4.41605 79 4.41605M79 4.41605L82.3705 7.83211L82.3705 1L79 4.41605Z" stroke="#DDDDDD" stroke-width="0.683211"/>
</svg>
