<svg width="233" height="43" viewBox="0 0 233 43" fill="none" xmlns="http://www.w3.org/2000/svg">
<path d="M44.31 11.694C43.8713 11.5073 43.5307 11.2367 43.288 10.882C43.0547 10.518 42.938 10.0933 42.938 9.608C42.938 8.86133 43.2133 8.25467 43.764 7.788C44.3147 7.312 45.024 7.074 45.892 7.074C46.7507 7.074 47.4507 7.30733 47.992 7.774C48.5427 8.23133 48.818 8.824 48.818 9.552C48.818 10.56 48.3653 11.274 47.46 11.694C48.6267 12.1047 49.21 12.912 49.21 14.116C49.21 15.0587 48.9067 15.81 48.3 16.37C47.6933 16.9207 46.8767 17.196 45.85 17.196C44.8607 17.196 44.0627 16.9253 43.456 16.384C42.8587 15.8333 42.56 15.1053 42.56 14.2C42.56 13.6027 42.7093 13.0893 43.008 12.66C43.316 12.2213 43.75 11.8993 44.31 11.694ZM47.138 8.558C46.83 8.278 46.4147 8.138 45.892 8.138C45.3693 8.138 44.9493 8.28267 44.632 8.572C44.3147 8.852 44.156 9.22533 44.156 9.692C44.156 10.1587 44.3147 10.5367 44.632 10.826C44.9493 11.106 45.3693 11.246 45.892 11.246C46.4053 11.246 46.816 11.106 47.124 10.826C47.4413 10.5367 47.6 10.1587 47.6 9.692C47.6 9.216 47.446 8.838 47.138 8.558ZM45.85 12.212C45.2527 12.212 44.7627 12.3987 44.38 12.772C43.9973 13.136 43.806 13.6027 43.806 14.172C43.806 14.76 43.9973 15.2453 44.38 15.628C44.772 16.0013 45.2713 16.188 45.878 16.188C46.494 16.188 46.9933 16.0013 47.376 15.628C47.768 15.2547 47.964 14.774 47.964 14.186C47.964 13.598 47.768 13.122 47.376 12.758C46.984 12.394 46.4753 12.212 45.85 12.212ZM57.4418 6.85C56.2004 8.76333 55.5798 10.9147 55.5798 13.304C55.5798 15.5813 56.2004 17.7 57.4418 19.66H56.5318C55.7758 18.484 55.2204 17.4247 54.8658 16.482C54.5204 15.53 54.3478 14.4753 54.3478 13.318C54.3478 10.9567 55.0758 8.80067 56.5318 6.85H57.4418ZM59.6088 11.694C59.1702 11.5073 58.8295 11.2367 58.5868 10.882C58.3535 10.518 58.2368 10.0933 58.2368 9.608C58.2368 8.86133 58.5122 8.25467 59.0628 7.788C59.6135 7.312 60.3228 7.074 61.1908 7.074C62.0495 7.074 62.7495 7.30733 63.2908 7.774C63.8415 8.23133 64.1168 8.824 64.1168 9.552C64.1168 10.56 63.6642 11.274 62.7588 11.694C63.9255 12.1047 64.5088 12.912 64.5088 14.116C64.5088 15.0587 64.2055 15.81 63.5988 16.37C62.9922 16.9207 62.1755 17.196 61.1488 17.196C60.1595 17.196 59.3615 16.9253 58.7548 16.384C58.1575 15.8333 57.8588 15.1053 57.8588 14.2C57.8588 13.6027 58.0082 13.0893 58.3068 12.66C58.6148 12.2213 59.0488 11.8993 59.6088 11.694ZM62.4368 8.558C62.1288 8.278 61.7135 8.138 61.1908 8.138C60.6682 8.138 60.2482 8.28267 59.9308 8.572C59.6135 8.852 59.4548 9.22533 59.4548 9.692C59.4548 10.1587 59.6135 10.5367 59.9308 10.826C60.2482 11.106 60.6682 11.246 61.1908 11.246C61.7042 11.246 62.1148 11.106 62.4228 10.826C62.7402 10.5367 62.8988 10.1587 62.8988 9.692C62.8988 9.216 62.7448 8.838 62.4368 8.558ZM61.1488 12.212C60.5515 12.212 60.0615 12.3987 59.6788 12.772C59.2962 13.136 59.1048 13.6027 59.1048 14.172C59.1048 14.76 59.2962 15.2453 59.6788 15.628C60.0708 16.0013 60.5702 16.188 61.1768 16.188C61.7928 16.188 62.2922 16.0013 62.6748 15.628C63.0668 15.2547 63.2628 14.774 63.2628 14.186C63.2628 13.598 63.0668 13.122 62.6748 12.758C62.2828 12.394 61.7742 12.212 61.1488 12.212ZM68.9561 7.074C69.5535 7.074 70.0621 7.186 70.4821 7.41C70.9115 7.62467 71.2381 7.89067 71.4621 8.208C71.6861 8.52533 71.8635 8.94067 71.9941 9.454C72.1248 9.958 72.2041 10.4153 72.2321 10.826C72.2601 11.2273 72.2741 11.7127 72.2741 12.282C72.2741 12.8047 72.2508 13.276 72.2041 13.696C72.1668 14.116 72.0781 14.5547 71.9381 15.012C71.8075 15.4693 71.6255 15.852 71.3921 16.16C71.1588 16.4587 70.8415 16.706 70.4401 16.902C70.0388 17.098 69.5628 17.196 69.0121 17.196C68.4335 17.196 67.9295 17.098 67.5001 16.902C67.0801 16.6967 66.7535 16.4447 66.5201 16.146C66.2868 15.8473 66.1001 15.4693 65.9601 15.012C65.8295 14.5453 65.7455 14.1067 65.7081 13.696C65.6708 13.276 65.6521 12.7953 65.6521 12.254C65.6521 11.7873 65.6615 11.3813 65.6801 11.036C65.7081 10.6907 65.7548 10.3033 65.8201 9.874C65.8948 9.43533 66.0068 9.06667 66.1561 8.768C66.3055 8.46 66.4968 8.17067 66.7301 7.9C66.9635 7.62933 67.2668 7.424 67.6401 7.284C68.0228 7.144 68.4615 7.074 68.9561 7.074ZM69.7261 8.306C69.5021 8.194 69.2455 8.138 68.9561 8.138C68.6668 8.138 68.4101 8.194 68.1861 8.306C67.9621 8.40867 67.7801 8.53 67.6401 8.67C67.5001 8.81 67.3788 9.02 67.2761 9.3C67.1735 9.57067 67.0988 9.79933 67.0521 9.986C67.0148 10.1727 66.9821 10.4433 66.9541 10.798C66.9261 11.1433 66.9121 11.3907 66.9121 11.54C66.9121 11.68 66.9121 11.918 66.9121 12.254C66.9121 12.5807 66.9168 12.8513 66.9261 13.066C66.9355 13.2807 66.9588 13.5607 66.9961 13.906C67.0335 14.2513 67.0988 14.5407 67.1921 14.774C67.2855 14.998 67.4021 15.2267 67.5421 15.46C67.6821 15.684 67.8735 15.8567 68.1161 15.978C68.3681 16.09 68.6575 16.146 68.9841 16.146C69.2641 16.146 69.5115 16.0947 69.7261 15.992C69.9501 15.8893 70.1321 15.768 70.2721 15.628C70.4121 15.488 70.5288 15.292 70.6221 15.04C70.7248 14.7787 70.7995 14.5547 70.8461 14.368C70.8928 14.172 70.9255 13.9153 70.9441 13.598C70.9721 13.2713 70.9861 13.0333 70.9861 12.884C70.9955 12.7253 71.0001 12.4967 71.0001 12.198C71.0001 11.8713 71.0001 11.638 71.0001 11.498C71.0001 11.358 70.9861 11.1153 70.9581 10.77C70.9301 10.4247 70.8928 10.1587 70.8461 9.972C70.8088 9.78533 70.7388 9.55667 70.6361 9.286C70.5335 9.01533 70.4121 8.81 70.2721 8.67C70.1321 8.53 69.9501 8.40867 69.7261 8.306ZM76.7354 7.074C77.3328 7.074 77.8414 7.186 78.2614 7.41C78.6908 7.62467 79.0174 7.89067 79.2414 8.208C79.4654 8.52533 79.6428 8.94067 79.7734 9.454C79.9041 9.958 79.9834 10.4153 80.0114 10.826C80.0394 11.2273 80.0534 11.7127 80.0534 12.282C80.0534 12.8047 80.0301 13.276 79.9834 13.696C79.9461 14.116 79.8574 14.5547 79.7174 15.012C79.5868 15.4693 79.4048 15.852 79.1714 16.16C78.9381 16.4587 78.6208 16.706 78.2194 16.902C77.8181 17.098 77.3421 17.196 76.7914 17.196C76.2128 17.196 75.7088 17.098 75.2794 16.902C74.8594 16.6967 74.5328 16.4447 74.2994 16.146C74.0661 15.8473 73.8794 15.4693 73.7394 15.012C73.6088 14.5453 73.5248 14.1067 73.4874 13.696C73.4501 13.276 73.4314 12.7953 73.4314 12.254C73.4314 11.7873 73.4408 11.3813 73.4594 11.036C73.4874 10.6907 73.5341 10.3033 73.5994 9.874C73.6741 9.43533 73.7861 9.06667 73.9354 8.768C74.0848 8.46 74.2761 8.17067 74.5094 7.9C74.7428 7.62933 75.0461 7.424 75.4194 7.284C75.8021 7.144 76.2408 7.074 76.7354 7.074ZM77.5054 8.306C77.2814 8.194 77.0248 8.138 76.7354 8.138C76.4461 8.138 76.1894 8.194 75.9654 8.306C75.7414 8.40867 75.5594 8.53 75.4194 8.67C75.2794 8.81 75.1581 9.02 75.0554 9.3C74.9528 9.57067 74.8781 9.79933 74.8314 9.986C74.7941 10.1727 74.7614 10.4433 74.7334 10.798C74.7054 11.1433 74.6914 11.3907 74.6914 11.54C74.6914 11.68 74.6914 11.918 74.6914 12.254C74.6914 12.5807 74.6961 12.8513 74.7054 13.066C74.7148 13.2807 74.7381 13.5607 74.7754 13.906C74.8128 14.2513 74.8781 14.5407 74.9714 14.774C75.0648 14.998 75.1814 15.2267 75.3214 15.46C75.4614 15.684 75.6528 15.8567 75.8954 15.978C76.1474 16.09 76.4368 16.146 76.7634 16.146C77.0434 16.146 77.2908 16.0947 77.5054 15.992C77.7294 15.8893 77.9114 15.768 78.0514 15.628C78.1914 15.488 78.3081 15.292 78.4014 15.04C78.5041 14.7787 78.5788 14.5547 78.6254 14.368C78.6721 14.172 78.7048 13.9153 78.7234 13.598C78.7514 13.2713 78.7654 13.0333 78.7654 12.884C78.7748 12.7253 78.7794 12.4967 78.7794 12.198C78.7794 11.8713 78.7794 11.638 78.7794 11.498C78.7794 11.358 78.7654 11.1153 78.7374 10.77C78.7094 10.4247 78.6721 10.1587 78.6254 9.972C78.5881 9.78533 78.5181 9.55667 78.4154 9.286C78.3128 9.01533 78.1914 8.81 78.0514 8.67C77.9114 8.53 77.7294 8.40867 77.5054 8.306ZM83.5627 13.318C83.5627 14.4753 83.3854 15.53 83.0307 16.482C82.6854 17.4247 82.1347 18.484 81.3787 19.66H80.4687C81.7101 17.7 82.3307 15.5813 82.3307 13.304C82.3307 10.9147 81.7101 8.76333 80.4687 6.85H81.3787C82.8347 8.80067 83.5627 10.9567 83.5627 13.318ZM95.2123 7.256V8.278C93.0469 10.7513 91.7823 13.6587 91.4183 17H90.1023C90.2143 15.4693 90.6156 13.9527 91.3063 12.45C92.0063 10.9473 92.9023 9.594 93.9943 8.39L88.8003 8.39V7.256L95.2123 7.256ZM102.992 7.256V8.278C100.826 10.7513 99.5615 13.6587 99.1975 17H97.8815C97.9935 15.4693 98.3949 13.9527 99.0855 12.45C99.7855 10.9473 100.682 9.594 101.774 8.39H96.5795V7.256L102.992 7.256ZM108.475 12.52V13.696H104.401V12.52H108.475ZM115.75 7.256V8.306L111.732 8.306L111.144 11.26C111.63 10.7373 112.297 10.476 113.146 10.476C114.08 10.476 114.836 10.7793 115.414 11.386C115.993 11.9833 116.282 12.7627 116.282 13.724C116.282 14.732 115.965 15.5627 115.33 16.216C114.696 16.8693 113.87 17.196 112.852 17.196C111.91 17.196 111.144 16.9347 110.556 16.412C109.978 15.8893 109.674 15.194 109.646 14.326H110.85C110.897 14.8767 111.107 15.3247 111.48 15.67C111.854 16.0153 112.316 16.188 112.866 16.188C113.482 16.188 113.996 15.964 114.406 15.516C114.817 15.068 115.022 14.5127 115.022 13.85C115.022 13.1593 114.822 12.5993 114.42 12.17C114.019 11.7313 113.496 11.512 112.852 11.512C112.031 11.512 111.396 11.834 110.948 12.478L109.926 12.408L110.85 7.256L115.75 7.256ZM121.948 7.088V17H120.646V9.818H118.154V8.922C118.956 8.922 119.591 8.79133 120.058 8.53C120.534 8.26867 120.851 7.788 121.01 7.088H121.948ZM131.533 15.922V17H125.065C125.093 16.4493 125.177 15.9687 125.317 15.558C125.457 15.1473 125.672 14.7787 125.961 14.452C126.26 14.116 126.549 13.8407 126.829 13.626C127.109 13.4113 127.506 13.1453 128.019 12.828C128.822 12.324 129.349 11.946 129.601 11.694C130.124 11.1807 130.385 10.6113 130.385 9.986C130.385 9.43533 130.208 8.98733 129.853 8.642C129.498 8.28733 129.036 8.11 128.467 8.11C127.786 8.11 127.296 8.348 126.997 8.824C126.708 9.29067 126.554 9.88333 126.535 10.602H125.331V10.336C125.331 9.356 125.62 8.56733 126.199 7.97C126.787 7.37267 127.562 7.074 128.523 7.074C129.466 7.074 130.217 7.33533 130.777 7.858C131.337 8.38067 131.617 9.08067 131.617 9.958C131.617 10.3313 131.552 10.686 131.421 11.022C131.3 11.3487 131.16 11.624 131.001 11.848C130.852 12.072 130.618 12.31 130.301 12.562C129.993 12.814 129.736 13.01 129.531 13.15C129.326 13.2807 129.032 13.4627 128.649 13.696C127.884 14.1533 127.375 14.508 127.123 14.76C126.768 15.1053 126.54 15.4927 126.437 15.922H131.533ZM137.254 12.52V13.696L133.18 13.696V12.52L137.254 12.52ZM144.992 7.256V8.278C142.826 10.7513 141.562 13.6587 141.198 17H139.882C139.994 15.4693 140.395 13.9527 141.086 12.45C141.786 10.9473 142.682 9.594 143.774 8.39H138.58V7.256L144.992 7.256ZM152.771 7.256V8.278C150.606 10.7513 149.341 13.6587 148.977 17H147.661C147.773 15.4693 148.174 13.9527 148.865 12.45C149.565 10.9473 150.461 9.594 151.553 8.39L146.359 8.39V7.256L152.771 7.256Z" fill="#A68E52"/>
<path d="M48.09 31.92C48.09 32.1533 48.0367 32.3967 47.93 32.65C47.8233 32.8967 47.6667 33.1367 47.46 33.37C47.2533 33.6033 46.9633 33.7933 46.59 33.94C46.2167 34.0867 45.7933 34.16 45.32 34.16C44.4267 34.16 43.71 33.95 43.17 33.53C42.6367 33.1033 42.37 32.4767 42.37 31.65H43.28C43.3 32.2567 43.5033 32.7 43.89 32.98C44.2767 33.2533 44.78 33.39 45.4 33.39C45.9 33.39 46.3167 33.2533 46.65 32.98C46.9833 32.7067 47.15 32.3467 47.15 31.9C47.15 31.6533 47.1033 31.4433 47.01 31.27C46.9167 31.0967 46.78 30.9667 46.6 30.88C46.42 30.7933 46.23 30.7333 46.03 30.7C45.8367 30.6667 45.61 30.65 45.35 30.65C45.1233 30.65 44.91 30.6567 44.71 30.67V29.89C44.8167 29.9033 45.03 29.91 45.35 29.91C46.3833 29.91 46.9 29.4833 46.9 28.63C46.9 27.87 46.39 27.49 45.37 27.49C44.29 27.49 43.7 27.9733 43.6 28.94H42.69C42.7167 28.2067 42.9767 27.6533 43.47 27.28C43.9633 26.9 44.6067 26.71 45.4 26.71C46.1267 26.71 46.7133 26.87 47.16 27.19C47.6133 27.51 47.84 27.99 47.84 28.63C47.84 28.99 47.7233 29.3167 47.49 29.61C47.2567 29.8967 46.98 30.0867 46.66 30.18V30.21C47.1133 30.2967 47.4633 30.5 47.71 30.82C47.9633 31.14 48.09 31.5067 48.09 31.92ZM53.6944 33.32V33.98C53.521 34.0467 53.3277 34.08 53.1144 34.08C52.6277 34.08 52.3777 33.8267 52.3644 33.32C51.8777 33.8667 51.2544 34.14 50.4944 34.14C49.9877 34.14 49.5844 34.01 49.2844 33.75C48.991 33.49 48.8444 33.1333 48.8444 32.68C48.8444 31.76 49.4544 31.2233 50.6744 31.07C51.3944 30.9833 51.811 30.92 51.9244 30.88C52.1644 30.8 52.2944 30.6333 52.3144 30.38C52.321 30.34 52.3244 30.2967 52.3244 30.25C52.3244 29.6833 51.9344 29.4 51.1544 29.4C50.7544 29.4 50.451 29.4833 50.2444 29.65C50.0377 29.81 49.9144 30.0767 49.8744 30.45H49.0444C49.0577 29.8967 49.2544 29.4667 49.6344 29.16C50.0144 28.8533 50.5377 28.7 51.2044 28.7C51.931 28.7 52.471 28.8667 52.8244 29.2C52.9377 29.3067 53.021 29.4467 53.0744 29.62C53.1277 29.7933 53.1577 29.9367 53.1644 30.05C53.171 30.1567 53.1744 30.32 53.1744 30.54C53.1744 30.8 53.1677 31.1867 53.1544 31.7C53.141 32.2067 53.1344 32.5867 53.1344 32.84C53.1344 33.0267 53.1577 33.16 53.2044 33.24C53.2577 33.3133 53.351 33.35 53.4844 33.35C53.5377 33.35 53.6077 33.34 53.6944 33.32ZM52.3244 31.32C52.2644 31.3667 52.201 31.4067 52.1344 31.44C52.0677 31.4733 51.981 31.5 51.8744 31.52C51.7744 31.54 51.7044 31.5567 51.6644 31.57C51.631 31.5767 51.5444 31.59 51.4044 31.61C51.2644 31.6233 51.191 31.63 51.1844 31.63C50.9777 31.6567 50.841 31.6767 50.7744 31.69C50.7144 31.6967 50.5944 31.7233 50.4144 31.77C50.241 31.8167 50.1177 31.87 50.0444 31.93C49.971 31.99 49.8977 32.08 49.8244 32.2C49.7577 32.3133 49.7244 32.45 49.7244 32.61C49.7244 32.8767 49.8144 33.0867 49.9944 33.24C50.181 33.3933 50.4344 33.47 50.7544 33.47C51.161 33.47 51.5244 33.35 51.8444 33.11C52.1644 32.87 52.3244 32.5867 52.3244 32.26V31.32ZM59.1155 34H58.0355L56.1555 31.46L55.3455 32.25V34H54.4955V28.84H55.3455V31.3L57.7055 28.84L58.8455 28.84L56.7655 30.87L59.1155 34ZM64.251 33.32V33.98C64.0777 34.0467 63.8843 34.08 63.671 34.08C63.1843 34.08 62.9343 33.8267 62.921 33.32C62.4343 33.8667 61.811 34.14 61.051 34.14C60.5443 34.14 60.141 34.01 59.841 33.75C59.5477 33.49 59.401 33.1333 59.401 32.68C59.401 31.76 60.011 31.2233 61.231 31.07C61.951 30.9833 62.3677 30.92 62.481 30.88C62.721 30.8 62.851 30.6333 62.871 30.38C62.8777 30.34 62.881 30.2967 62.881 30.25C62.881 29.6833 62.491 29.4 61.711 29.4C61.311 29.4 61.0077 29.4833 60.801 29.65C60.5943 29.81 60.471 30.0767 60.431 30.45H59.601C59.6143 29.8967 59.811 29.4667 60.191 29.16C60.571 28.8533 61.0943 28.7 61.761 28.7C62.4877 28.7 63.0277 28.8667 63.381 29.2C63.4943 29.3067 63.5777 29.4467 63.631 29.62C63.6843 29.7933 63.7143 29.9367 63.721 30.05C63.7277 30.1567 63.731 30.32 63.731 30.54C63.731 30.8 63.7243 31.1867 63.711 31.7C63.6977 32.2067 63.691 32.5867 63.691 32.84C63.691 33.0267 63.7143 33.16 63.761 33.24C63.8143 33.3133 63.9077 33.35 64.041 33.35C64.0943 33.35 64.1643 33.34 64.251 33.32ZM62.881 31.32C62.821 31.3667 62.7577 31.4067 62.691 31.44C62.6243 31.4733 62.5377 31.5 62.431 31.52C62.331 31.54 62.261 31.5567 62.221 31.57C62.1877 31.5767 62.101 31.59 61.961 31.61C61.821 31.6233 61.7477 31.63 61.741 31.63C61.5343 31.6567 61.3977 31.6767 61.331 31.69C61.271 31.6967 61.151 31.7233 60.971 31.77C60.7977 31.8167 60.6743 31.87 60.601 31.93C60.5277 31.99 60.4543 32.08 60.381 32.2C60.3143 32.3133 60.281 32.45 60.281 32.61C60.281 32.8767 60.371 33.0867 60.551 33.24C60.7377 33.3933 60.991 33.47 61.311 33.47C61.7177 33.47 62.081 33.35 62.401 33.11C62.721 32.87 62.881 32.5867 62.881 32.26V31.32ZM64.7621 30.33C64.8021 29.7433 65.0254 29.3233 65.4321 29.07C65.8388 28.8167 66.3421 28.69 66.9421 28.69C67.5088 28.69 67.9721 28.8067 68.3321 29.04C68.6988 29.2733 68.8821 29.62 68.8821 30.08C68.8821 30.36 68.7988 30.6 68.6321 30.8C68.4721 31 68.2788 31.1233 68.0521 31.17V31.19C68.3254 31.2433 68.5588 31.38 68.7521 31.6C68.9521 31.8133 69.0521 32.1033 69.0521 32.47C69.0521 33.0033 68.8421 33.42 68.4221 33.72C68.0021 34.0133 67.4988 34.16 66.9121 34.16C66.2388 34.16 65.7021 34.0067 65.3021 33.7C64.9088 33.3867 64.6988 32.95 64.6721 32.39H65.5321C65.5588 32.75 65.6954 33.02 65.9421 33.2C66.1888 33.38 66.5088 33.47 66.9021 33.47C67.2954 33.47 67.6054 33.3767 67.8321 33.19C68.0588 32.9967 68.1721 32.7633 68.1721 32.49C68.1721 31.93 67.8054 31.65 67.0721 31.65H66.3621V30.96H66.9321C67.2588 30.96 67.5221 30.8933 67.7221 30.76C67.9221 30.62 68.0221 30.4067 68.0221 30.12C68.0221 29.92 67.9221 29.7467 67.7221 29.6C67.5288 29.4533 67.2654 29.38 66.9321 29.38C66.5921 29.38 66.2954 29.4567 66.0421 29.61C65.7954 29.7633 65.6554 30.0033 65.6221 30.33H64.7621ZM74.6221 33.32V33.98C74.4488 34.0467 74.2554 34.08 74.0421 34.08C73.5554 34.08 73.3054 33.8267 73.2921 33.32C72.8054 33.8667 72.1821 34.14 71.4221 34.14C70.9154 34.14 70.5121 34.01 70.2121 33.75C69.9188 33.49 69.7721 33.1333 69.7721 32.68C69.7721 31.76 70.3821 31.2233 71.6021 31.07C72.3221 30.9833 72.7388 30.92 72.8521 30.88C73.0921 30.8 73.2221 30.6333 73.2421 30.38C73.2488 30.34 73.2521 30.2967 73.2521 30.25C73.2521 29.6833 72.8621 29.4 72.0821 29.4C71.6821 29.4 71.3788 29.4833 71.1721 29.65C70.9654 29.81 70.8421 30.0767 70.8021 30.45H69.9721C69.9854 29.8967 70.1821 29.4667 70.5621 29.16C70.9421 28.8533 71.4654 28.7 72.1321 28.7C72.8588 28.7 73.3988 28.8667 73.7521 29.2C73.8654 29.3067 73.9488 29.4467 74.0021 29.62C74.0554 29.7933 74.0854 29.9367 74.0921 30.05C74.0988 30.1567 74.1021 30.32 74.1021 30.54C74.1021 30.8 74.0954 31.1867 74.0821 31.7C74.0688 32.2067 74.0621 32.5867 74.0621 32.84C74.0621 33.0267 74.0854 33.16 74.1321 33.24C74.1854 33.3133 74.2788 33.35 74.4121 33.35C74.4654 33.35 74.5354 33.34 74.6221 33.32ZM73.2521 31.32C73.1921 31.3667 73.1288 31.4067 73.0621 31.44C72.9954 31.4733 72.9088 31.5 72.8021 31.52C72.7021 31.54 72.6321 31.5567 72.5921 31.57C72.5588 31.5767 72.4721 31.59 72.3321 31.61C72.1921 31.6233 72.1188 31.63 72.1121 31.63C71.9054 31.6567 71.7688 31.6767 71.7021 31.69C71.6421 31.6967 71.5221 31.7233 71.3421 31.77C71.1688 31.8167 71.0454 31.87 70.9721 31.93C70.8988 31.99 70.8254 32.08 70.7521 32.2C70.6854 32.3133 70.6521 32.45 70.6521 32.61C70.6521 32.8767 70.7421 33.0867 70.9221 33.24C71.1088 33.3933 71.3621 33.47 71.6821 33.47C72.0888 33.47 72.4521 33.35 72.7721 33.11C73.0921 32.87 73.2521 32.5867 73.2521 32.26V31.32ZM79.3732 29.59H77.5232V34H76.6732V29.59H74.8232V28.84H79.3732V29.59ZM83.9321 31.24C84.2388 31.52 84.3921 31.9033 84.3921 32.39C84.3921 32.8767 84.2421 33.2667 83.9421 33.56C83.6488 33.8533 83.2521 34 82.7521 34H80.0221V28.84H80.8721V30.81H82.7121C83.2188 30.81 83.6254 30.9533 83.9321 31.24ZM82.4421 31.54H80.8721V33.25H82.4421C82.7888 33.25 83.0521 33.1767 83.2321 33.03C83.4188 32.8767 83.5121 32.6633 83.5121 32.39C83.5121 31.8233 83.1554 31.54 82.4421 31.54ZM87.7309 30.33C87.7709 29.7433 87.9942 29.3233 88.4009 29.07C88.8075 28.8167 89.3109 28.69 89.9109 28.69C90.4775 28.69 90.9409 28.8067 91.3009 29.04C91.6675 29.2733 91.8509 29.62 91.8509 30.08C91.8509 30.36 91.7675 30.6 91.6009 30.8C91.4409 31 91.2475 31.1233 91.0209 31.17V31.19C91.2942 31.2433 91.5275 31.38 91.7209 31.6C91.9209 31.8133 92.0209 32.1033 92.0209 32.47C92.0209 33.0033 91.8109 33.42 91.3909 33.72C90.9709 34.0133 90.4675 34.16 89.8809 34.16C89.2075 34.16 88.6709 34.0067 88.2709 33.7C87.8775 33.3867 87.6675 32.95 87.6409 32.39H88.5009C88.5275 32.75 88.6642 33.02 88.9109 33.2C89.1575 33.38 89.4775 33.47 89.8709 33.47C90.2642 33.47 90.5742 33.3767 90.8009 33.19C91.0275 32.9967 91.1409 32.7633 91.1409 32.49C91.1409 31.93 90.7742 31.65 90.0409 31.65H89.3309V30.96H89.9009C90.2275 30.96 90.4909 30.8933 90.6909 30.76C90.8909 30.62 90.9909 30.4067 90.9909 30.12C90.9909 29.92 90.8909 29.7467 90.6909 29.6C90.4975 29.4533 90.2342 29.38 89.9009 29.38C89.5609 29.38 89.2642 29.4567 89.0109 29.61C88.7642 29.7633 88.6242 30.0033 88.5909 30.33H87.7309ZM93.0009 34V28.84H95.3909C95.7309 28.84 96.0209 28.87 96.2609 28.93C96.5009 28.9833 96.7109 29.1067 96.8909 29.3C97.0709 29.4933 97.1609 29.7567 97.1609 30.09C97.1609 30.5967 96.9075 30.9667 96.4009 31.2V31.21C96.7075 31.27 96.9475 31.4133 97.1209 31.64C97.2942 31.86 97.3809 32.14 97.3809 32.48C97.3809 32.92 97.2342 33.2833 96.9409 33.57C96.6475 33.8567 96.2709 34 95.8109 34H93.0009ZM95.3009 30.92C95.6542 30.92 95.9042 30.8633 96.0509 30.75C96.2042 30.63 96.2809 30.4567 96.2809 30.23C96.2809 30.0033 96.2075 29.8367 96.0609 29.73C95.9142 29.6233 95.6609 29.57 95.3009 29.57H93.8309V30.92H95.3009ZM93.8309 31.64V33.27H95.6509C95.9175 33.27 96.1242 33.19 96.2709 33.03C96.4242 32.87 96.5009 32.6633 96.5009 32.41C96.5009 31.8967 96.1675 31.64 95.5009 31.64H93.8309ZM98.802 29.43C99.2553 28.9367 99.872 28.69 100.652 28.69C101.432 28.69 102.039 28.9267 102.472 29.4C102.905 29.8733 103.122 30.5367 103.122 31.39C103.122 32.2633 102.905 32.9433 102.472 33.43C102.039 33.9167 101.429 34.16 100.642 34.16C99.8553 34.16 99.2386 33.92 98.792 33.44C98.3453 32.96 98.122 32.2933 98.122 31.44C98.122 30.5933 98.3486 29.9233 98.802 29.43ZM101.812 29.95C101.525 29.5833 101.132 29.4 100.632 29.4C100.132 29.4 99.7353 29.5833 99.442 29.95C99.1486 30.3167 99.002 30.8067 99.002 31.42C99.002 32.0533 99.1453 32.55 99.432 32.91C99.7253 33.2633 100.132 33.44 100.652 33.44C101.152 33.44 101.542 33.26 101.822 32.9C102.109 32.54 102.252 32.0433 102.252 31.41C102.252 30.7967 102.105 30.31 101.812 29.95ZM104.984 34H104.134V28.84H104.984V30.89H107.564V28.84H108.414V34H107.564V31.64H104.984V34ZM110.101 29.43C110.554 28.9367 111.171 28.69 111.951 28.69C112.731 28.69 113.337 28.9267 113.771 29.4C114.204 29.8733 114.421 30.5367 114.421 31.39C114.421 32.2633 114.204 32.9433 113.771 33.43C113.337 33.9167 112.727 34.16 111.941 34.16C111.154 34.16 110.537 33.92 110.091 33.44C109.644 32.96 109.421 32.2933 109.421 31.44C109.421 30.5933 109.647 29.9233 110.101 29.43ZM113.111 29.95C112.824 29.5833 112.431 29.4 111.931 29.4C111.431 29.4 111.034 29.5833 110.741 29.95C110.447 30.3167 110.301 30.8067 110.301 31.42C110.301 32.0533 110.444 32.55 110.731 32.91C111.024 33.2633 111.431 33.44 111.951 33.44C112.451 33.44 112.841 33.26 113.121 32.9C113.407 32.54 113.551 32.0433 113.551 31.41C113.551 30.7967 113.404 30.31 113.111 29.95ZM120.053 34H118.973L117.093 31.46L116.283 32.25V34H115.433V28.84H116.283V31.3L118.643 28.84H119.783L117.703 30.87L120.053 34Z" fill="#DDDDDD"/>
<circle opacity="0.4" cx="15" cy="20" r="14.5" stroke="#757575"/>
<circle opacity="0.4" cx="218" cy="20" r="14.5" stroke="#757575"/>
<path d="M14.0043 20.4588C13.0685 19.5224 12.1729 18.4376 12.6018 18.0087C13.2152 17.3953 13.7499 17.0168 12.6621 15.6633C11.5749 14.3105 10.8497 15.3498 10.2558 15.9443C9.56963 16.6305 10.2191 19.1882 12.7467 21.7164C15.2749 24.244 17.8326 24.8917 18.5188 24.2049C19.1139 23.6105 20.1526 22.8888 18.7998 21.8016C17.447 20.7138 17.0684 21.2479 16.4544 21.8625C16.0255 22.2896 14.9407 21.3946 14.0043 20.4588Z" fill="#A68E52"/>
<line x1="42" y1="42.5" x2="119" y2="42.5" stroke="#A68E52"/>
<path d="M211.74 15.88H212.69V20.37C212.69 21.0633 212.84 21.57 213.14 21.89C213.44 22.21 213.93 22.37 214.61 22.37C215.31 22.37 215.803 22.2067 216.09 21.88C216.383 21.5533 216.53 21.05 216.53 20.37V15.88H217.48V20.12C217.48 21.16 217.263 21.9267 216.83 22.42C216.397 22.9067 215.657 23.15 214.61 23.15C213.597 23.15 212.863 22.9133 212.41 22.44C211.963 21.96 211.74 21.22 211.74 20.22V15.88ZM222.497 15.88L225.277 23H224.227L223.437 20.82H220.447L219.637 23H218.637L221.437 15.88H222.497ZM223.157 20.07L221.947 16.78L220.717 20.07H223.157Z" fill="#DDDDDD"/>
</svg>
